<svg width="134" height="140" viewBox="0 0 134 140" fill="none" xmlns="http://www.w3.org/2000/svg">
<path d="M75.5675 137.208C75.1635 137.204 74.8966 137.471 74.471 137.471C73.6547 137.473 72.7927 137.479 71.8849 137.489C71.4828 137.493 71.151 137.657 70.7632 137.667C69.7774 137.694 68.7446 137.701 67.665 137.689C67.0591 137.684 66.5307 137.485 65.9446 137.482C65.1715 137.477 64.4015 137.474 63.6344 137.473C63.3116 137.471 63.1349 137.253 62.8301 137.236C62.2687 137.209 61.715 137.197 61.1692 137.2C60.8824 137.202 60.6264 137.087 60.3504 137.049C57.679 136.682 55.5522 136.315 53.97 135.947C43.0222 133.401 33.1847 128.606 24.4575 121.563C23.9489 121.152 23.48 120.696 22.9552 120.306C22.7557 120.158 22.5573 119.989 22.3601 119.799C19.4014 116.936 17.5877 115.117 16.9193 114.344C8.86533 105.028 3.2225 93.5979 1.04761 81.5026C0.910551 80.7403 0.691139 79.1684 0.389371 76.7867C0.338875 76.3912 0.313028 76.007 0.311826 75.6343C0.310022 75.1059 0.358712 74.4892 0.219851 73.9878C0.158536 73.766 0.102628 73.537 0.0990211 73.3025C0.0725713 70.4844 0.0815927 67.7282 0.126076 65.034C0.13329 64.6138 0.275754 64.2188 0.284771 63.8004C0.299198 63.0629 0.310019 62.3433 0.398385 61.6129C0.670698 59.3623 0.878089 57.2523 1.36861 54.9999C1.71366 53.4189 2.07193 51.7724 2.44343 50.0604C2.56727 49.4893 2.75062 48.8647 2.99347 48.1867C3.52247 46.7055 3.99015 45.3271 4.39651 44.0515C4.6526 43.246 4.96518 42.4627 5.33428 41.7017C6.05744 40.2084 6.66338 38.6485 7.46769 37.1805C8.46076 35.3663 9.44782 33.7156 10.4289 32.2284C11.8932 30.0084 13.3648 27.747 15.0275 25.6244C15.5673 24.9355 16.7612 23.5878 18.6091 21.5812C22.2086 17.6714 26.3979 14.2702 30.9335 11.2766C37.5014 6.94242 44.6152 3.84539 52.2748 1.98549C54.4149 1.46731 56.6595 1.07237 59.0087 0.800657C59.4343 0.750162 59.813 0.571631 60.2224 0.586058C60.7502 0.605294 61.278 0.577041 61.8058 0.501298C62.4045 0.415937 62.9569 0.37145 63.4631 0.367843C65.5358 0.354618 67.5087 0.353418 69.3818 0.364238C69.9277 0.366643 70.4729 0.409924 71.0175 0.494083C71.7641 0.6095 72.5198 0.564413 73.279 0.683437C74.6712 0.901648 76.0652 1.04412 77.4033 1.31102C80.4763 1.92057 83.5205 2.81265 86.5357 3.98726C88.5495 4.77234 90.4034 5.67163 92.0974 6.68513C92.2609 6.78252 92.4058 6.89914 92.532 7.03499C92.5658 7.07125 92.5915 7.1142 92.6076 7.16102C92.6236 7.20784 92.6296 7.25748 92.6252 7.30668C92.6208 7.35588 92.606 7.40355 92.5819 7.44654C92.5577 7.48954 92.5248 7.5269 92.4851 7.55618C92.2375 7.73772 91.9285 7.77559 91.5582 7.66979C88.906 6.90756 86.1558 6.4026 83.3077 6.15494C82.5394 6.08761 81.9106 6.04854 81.4213 6.03772C79.9485 6.00285 78.4132 5.99143 76.8154 6.00345C76.3934 6.00706 76.0328 6.18559 75.618 6.19461C74.6982 6.21264 73.7298 6.11166 72.8227 6.36053C72.1555 6.54267 71.4089 6.39118 70.7741 6.63284C70.4639 6.75006 70.1645 6.71219 69.8381 6.76809C65.9295 7.42573 61.9092 8.61897 57.777 10.3478C53.3238 12.2125 49.2091 14.6682 45.4328 17.7147C44.8569 18.1788 44.281 18.6681 43.7051 19.1827C43.1292 19.6984 42.5696 20.201 42.0261 20.6903C40.7037 21.8817 39.4419 23.1904 38.2408 24.6163C37.9739 24.9337 37.6403 25.1988 37.395 25.5216C36.854 26.2303 36.2697 26.8723 35.7377 27.5811C33.7143 30.2705 32.1051 32.6865 30.91 34.8289C30.0823 36.3149 28.9732 38.506 28.2067 40.3148C26.4851 44.3821 25.3472 48.6261 24.7929 53.0468C24.7677 53.25 24.734 53.4466 24.6919 53.6365C24.5531 54.2695 24.618 55.0197 24.6054 55.6816C24.603 55.8607 24.5555 56.1991 24.4629 56.6969C24.392 57.0756 24.3559 57.4645 24.3547 57.8637C24.3499 59.6262 24.3547 61.2811 24.3691 62.8284C24.3745 63.4668 24.6144 64.0583 24.6018 64.7021C24.5909 65.2408 24.6132 65.7511 24.6685 66.2332C25.9182 77.0951 30.6431 87.2518 37.8711 95.5023C40.046 97.985 42.2732 100.124 44.5527 101.919C49.6743 105.954 55.0208 108.909 60.5921 110.786C64.0907 111.964 67.6307 112.979 71.27 113.529C73.6986 113.895 75.5837 114.104 76.9254 114.158C77.3282 114.175 77.7189 114.208 78.0976 114.258C79.479 114.438 80.8388 114.425 82.2599 114.409C82.8346 114.402 83.3581 114.366 83.8306 114.303C84.344 114.233 84.8634 114.187 85.3888 114.164C88.5399 114.028 91.7115 113.614 94.9035 112.921C104.923 110.746 114.49 106.128 122.308 99.4842C123.107 98.8049 123.981 97.9664 124.93 96.9685C126.402 95.42 127.936 93.6845 129.532 91.7621C130.19 90.9686 130.838 90.1126 131.476 89.194C131.734 88.8243 132.297 88.2365 132.768 88.6621C133.267 89.1147 133.309 89.405 133.114 90.0434C131.974 93.7765 130.698 97.239 129.285 100.431C128.57 102.05 127.649 103.768 126.522 105.585C125.274 107.6 123.733 109.812 121.898 112.222C121.568 112.656 121.174 113.015 120.889 113.471C120.497 114.095 119.879 114.523 119.457 115.152C119.34 115.325 119.206 115.491 119.055 115.648C117.451 117.314 115.621 119.134 113.567 121.107C113.438 121.231 113.304 121.352 113.163 121.469C109.472 124.572 105.644 127.212 101.679 129.388C100.653 129.952 99.5869 130.492 98.4796 131.009C92.9107 133.611 87.0894 135.459 81.0155 136.553C80.3868 136.667 79.7628 136.777 79.1436 136.883C78.6783 136.964 78.2581 136.943 77.8019 136.975C77.553 136.991 77.3961 137.195 77.1725 137.2C76.6411 137.211 76.1061 137.214 75.5675 137.208Z" fill="#DDDDFF"/>
<path d="M127.756 19.0349C127.662 19.446 127.747 19.8464 127.572 20.2413C127.33 20.7896 127.137 21.3829 126.887 21.8896C125.247 25.2103 122.6 27.4243 118.946 28.5315C118.397 28.6987 117.841 28.8441 117.28 28.968C117.208 28.9841 117.143 29.0248 117.098 29.0829C117.052 29.1411 117.028 29.2132 117.029 29.2872C117.063 31.2817 117.064 33.3093 117.033 35.37C117.019 36.3348 117.15 37.3285 117.475 38.2068C118.021 39.6855 119.473 40.9515 120.775 41.7648C121.762 42.3804 122.631 42.9677 123.383 43.5268C125.168 44.8577 126.595 46.6665 127.366 48.9009C127.512 49.3265 127.503 49.7629 127.523 50.1993C127.526 50.2759 127.514 50.3523 127.487 50.4239C127.46 50.4956 127.419 50.561 127.366 50.6163C127.313 50.6715 127.25 50.7155 127.179 50.7455C127.109 50.7755 127.033 50.7909 126.957 50.7908C119.373 50.7884 112.002 50.7866 104.844 50.7854C104.553 50.7854 104.266 50.6983 103.982 50.5239C103.929 50.4915 103.9 50.4446 103.895 50.3833C103.706 47.8333 105.821 44.9965 107.774 43.5466C108.485 43.0188 109.204 42.5235 109.933 42.0606C111.166 41.2761 112.34 40.2572 113.195 39.1517C113.632 38.5873 114.074 37.6693 114.11 36.9047C114.125 36.5657 114.163 36.235 114.223 35.9128C114.339 35.2979 114.297 34.6487 114.274 34.0157C114.214 32.3806 114.235 30.8357 114.337 29.3809C114.343 29.291 114.319 29.2016 114.267 29.128C114.215 29.0543 114.139 29.0009 114.052 28.977C112.836 28.647 111.63 28.3169 110.487 27.7669C107.423 26.2965 105.274 23.9942 104.038 20.8599C102.889 17.9456 102.984 14.4849 103.825 11.5147C104.003 10.8871 104.267 10.2878 104.618 9.71672C106.981 5.8791 111.087 3.44451 115.652 3.77093C115.722 3.77574 115.766 3.81241 115.783 3.88094C115.794 3.92422 115.79 3.9651 115.771 4.00357C115.747 4.05286 115.71 4.08833 115.661 4.10997C113.715 4.94674 111.561 6.678 110.589 8.45615C110.205 9.15767 109.812 10.1423 109.785 10.9773C109.767 11.5291 109.612 12.0106 109.718 12.5751C109.775 12.8721 109.805 13.1919 109.809 13.5345C109.811 13.8675 109.861 14.1759 109.96 14.4597C110.829 16.9772 112.516 18.5251 115.02 19.1034C115.997 19.3294 116.99 19.3216 118 19.0799C120.279 18.5353 121.983 17.1425 123.11 14.9015C124.43 12.2757 124.147 9.37768 123.141 6.67981C123.051 6.43454 123.119 6.37744 123.345 6.50849C123.827 6.78621 124.255 7.13126 124.629 7.54363C126.7 9.82433 127.813 12.3785 127.967 15.2063C127.995 15.7208 128.002 16.7944 127.989 18.4271C127.987 18.6195 127.937 18.7704 127.837 18.8798C127.796 18.9243 127.769 18.976 127.756 19.0349Z" fill="#DDDDFF"/>
<path d="M95.7636 101.293C95.7945 101.345 95.8381 101.387 95.8902 101.417C95.9424 101.447 96.0013 101.462 96.0612 101.463H103.94C103.97 101.462 103.998 101.474 104.019 101.494C104.04 101.514 104.052 101.542 104.052 101.571L104.099 104.829C104.1 104.924 104.071 105.017 104.016 105.094C103.961 105.171 103.882 105.229 103.792 105.259C103.132 105.476 102.478 105.699 101.828 105.928C98.3755 107.142 94.9341 108.053 91.504 108.66C90.8295 108.779 90.146 108.837 89.4734 108.988C88.954 109.103 88.4527 109.075 87.9261 109.1C87.8611 109.103 87.8016 109.123 87.7475 109.158C87.56 109.277 87.3676 109.336 87.1704 109.336C86.5885 109.335 85.9832 109.335 85.3544 109.336C84.8873 109.338 84.5177 109.565 84.0524 109.562C82.237 109.548 80.4444 109.548 78.6746 109.56C78.4679 109.561 78.2761 109.53 78.0994 109.468C77.8361 109.376 77.6395 109.331 77.5097 109.333C76.6855 109.343 75.8614 109.347 75.0318 109.23C72.8641 108.927 71.0523 108.621 69.5964 108.314C64.4459 107.227 59.5172 105.423 54.8103 102.903C52.7112 101.779 50.6277 100.432 48.5598 98.8602C48.2123 98.5969 47.8781 98.3102 47.5571 98C47.393 97.8431 47.2271 97.8647 47.0557 97.6988C45.8955 96.5675 44.7786 95.453 43.705 94.3553C43.4549 94.1004 43.3425 93.7873 43.3678 93.4158C43.3726 93.3556 43.3606 93.2979 43.3317 93.2426C42.962 92.5393 43.3858 92.0307 43.3894 91.3256C43.3894 91.3017 43.3991 91.2788 43.4164 91.2619C43.4336 91.2449 43.457 91.2354 43.4814 91.2354L45.1964 91.2373C45.2601 91.2373 45.3088 91.2096 45.3425 91.1543C45.4399 90.9938 45.4092 90.7485 45.2487 90.6313C45.1525 90.5616 45.069 90.4738 44.9981 90.368C44.6867 89.8991 44.3729 89.4266 44.0567 88.9505C42.4577 86.534 41.3534 83.8169 40.7438 80.7992C40.5503 79.841 40.4391 78.973 40.4102 78.1951C40.3706 77.1293 40.2064 76.1392 40.2858 75.0879C40.3471 74.2871 40.4042 73.5369 40.4571 72.8372C40.5341 71.8069 40.7691 70.5806 41.1622 69.1583C41.5121 67.8923 41.8752 66.7309 42.2515 65.6741C42.8953 63.8707 44.008 62.1828 45.173 60.5633C47.0209 57.9941 49.1356 55.8456 51.5173 54.118C54.4208 52.0098 57.6326 50.3345 60.8319 48.7601C62.5956 47.8933 64.0155 47.021 65.0915 46.1434C66.313 45.1479 67.2549 44.2215 67.9174 43.3643C68.2901 42.8822 68.5035 42.2763 68.5576 41.5465C68.6141 40.7831 68.6442 40.3893 68.6478 40.3653C68.8624 38.8919 68.7866 37.3248 68.7091 35.8081C68.6959 35.5448 68.7031 35.2803 68.7307 35.0146C68.7776 34.5403 68.9724 33.9452 68.4097 33.6855C65.5874 32.3835 63.7714 29.5323 64.0563 26.38C64.2763 23.9562 65.4287 22.169 67.5134 21.0185C67.7815 20.8718 68.0412 20.7558 68.2925 20.6704C68.5726 20.5766 68.8558 20.4738 69.1419 20.362C69.4882 20.2268 69.8542 20.2466 70.2221 20.234C70.4722 20.2256 70.5059 20.3073 70.3231 20.4793C69.9877 20.7966 69.6342 21.1267 69.2627 21.4693C68.129 22.5153 67.6 23.7993 67.6757 25.3214C67.8074 27.9489 70.0021 29.7036 72.5521 29.792C74.3038 29.8521 75.8295 29.1632 77.1291 27.7253C77.4285 27.3953 77.607 27.0003 77.9082 26.6739C77.9587 26.6198 77.9906 26.5561 78.0038 26.4827C78.0242 26.3709 78.0753 26.276 78.1571 26.1978C78.204 26.1533 78.2268 26.0992 78.2256 26.0355C78.2232 25.5919 78.3224 25.1843 78.5232 24.8128C78.5905 24.6866 78.6284 24.695 78.6368 24.8381C78.662 25.2799 78.8586 25.5973 78.8983 26.003C78.9536 26.5885 78.9193 27.2444 78.7955 27.9706C78.5707 29.2918 78.1264 30.3883 77.4628 31.2599C76.3879 32.6714 75.0558 33.5713 73.4664 33.9596C73.2933 34.0029 73.1689 34.1273 72.9922 34.1255C72.6339 34.1231 72.272 34.1291 71.9065 34.1436C71.8284 34.1466 71.7543 34.1787 71.6989 34.2335C71.6435 34.2883 71.6107 34.3617 71.6071 34.4393C71.5759 35.1066 71.5795 35.7774 71.618 36.4519C71.719 38.212 71.6721 40.0208 71.7009 41.6944C71.7069 42.0707 71.8067 42.4849 72.0003 42.9369C72.4854 44.0731 73.3438 45.0758 74.3158 45.8927C74.911 46.3904 75.5602 46.8936 76.2058 47.312C77.9166 48.4216 79.6978 49.4298 81.5493 50.3363C83.313 51.2001 85.0208 52.219 86.5988 53.2884C88.1196 54.32 89.7415 55.7242 91.4643 57.5011C93.8412 59.9538 95.6464 62.8158 97.017 65.9032C97.8736 67.8346 98.292 69.9175 98.6761 72.0257C98.7711 72.5487 98.8222 73.0518 98.8294 73.5351C98.8492 74.756 98.9989 75.9787 98.8763 77.2339C98.8162 77.8543 98.8029 78.5071 98.8366 79.1924C98.8401 79.2771 98.8181 79.3612 98.7735 79.434C98.6557 79.624 98.5979 79.841 98.6004 80.0851C98.6028 80.3159 98.5757 80.5515 98.5192 80.792C97.8243 83.7159 96.7188 86.3879 95.2028 88.8081C94.7988 89.4549 94.3443 90.0885 93.8394 90.7089C93.8009 90.7565 93.7768 90.8141 93.7697 90.8749C93.7625 90.9357 93.7728 90.9973 93.7992 91.0526C93.8256 91.1078 93.8671 91.1545 93.9189 91.1872C93.9706 91.2199 94.0306 91.2372 94.0919 91.2373L95.4462 91.2354C95.5159 91.2354 95.5544 91.2703 95.5616 91.34C95.5989 91.7151 95.6199 92.083 95.6248 92.4437C95.6584 95.3159 95.6524 98.0367 95.6067 100.606C95.6019 100.879 95.6542 101.108 95.7636 101.293ZM61.6001 89.0732C62.4657 89.4555 63.3043 89.4098 64.1158 88.9361C65.6956 88.0128 67.2718 86.8929 68.7001 85.9876C71.3138 84.3321 73.8806 82.6964 76.4006 81.0805C77.7026 80.2456 79.313 79.288 80.7702 78.3538C81.3268 77.9979 81.7074 77.6757 81.9117 77.3872C82.8225 76.105 82.4005 74.4531 81.1399 73.6235C77.4862 71.2214 73.7905 68.7916 70.0526 66.3342C68.2661 65.1584 66.3779 63.8809 64.3882 62.502C62.8967 61.4668 61.1348 62.0457 60.5109 63.721C60.481 63.8022 60.4658 63.8876 60.4658 63.9735C60.467 71.0957 60.464 78.1903 60.4568 85.2572C60.4568 86.341 60.2926 88.4943 61.6001 89.0732Z" fill="#FF0000"/>
<path d="M109.552 102.222C109.485 102.338 109.382 102.376 109.242 102.334C109.216 102.326 109.193 102.31 109.177 102.288C109.161 102.266 109.152 102.24 109.152 102.213C109.156 93.922 109.128 85.6312 109.069 77.3404C109.061 76.1935 109.062 74.9924 109.073 73.7372C109.117 68.2934 109.139 62.7918 109.139 57.2326C109.139 56.7998 109.134 56.165 109.368 55.7953C109.403 55.74 109.453 55.7027 109.516 55.6834C110.062 55.5175 110.599 55.4472 111.127 55.4725C113.753 55.5975 116.438 55.6053 119.184 55.4959C119.9 55.4688 120.692 55.3083 121.37 55.4129C121.893 55.4935 122.338 55.7508 122.705 56.1848C122.739 56.2243 122.759 56.2749 122.759 56.3273L122.775 91.5476C122.775 91.6125 122.757 91.672 122.721 91.7261C122.357 92.29 122.047 92.7126 121.792 92.9939C121.137 93.7164 120.336 94.5063 119.39 95.3635C119.232 95.5066 119.058 95.6353 118.867 95.7495C118.607 95.9046 118.423 96.13 118.185 96.3193C116.252 97.833 113.985 99.4464 111.383 101.16C111.242 101.252 111.099 101.33 110.952 101.394C110.893 101.419 110.842 101.456 110.8 101.504C110.734 101.579 110.651 101.62 110.552 101.627C110.489 101.63 110.44 101.657 110.404 101.708C110.352 101.78 110.283 101.828 110.198 101.85C110.119 101.872 110.062 101.92 110.027 101.995C109.979 102.096 109.896 102.136 109.78 102.115C109.68 102.099 109.604 102.134 109.552 102.222Z" fill="#DDDDFF"/>
<path d="M7.84097 116.039C8.06699 115.397 8.36696 114.835 8.74086 114.351C9.25904 113.682 9.78983 113.509 10.3333 113.834C10.6531 114.024 10.9945 114.354 11.3576 114.826C12.8532 116.765 14.6867 118.852 16.8579 121.087C17.8696 122.128 18.9607 123.067 20.0031 124.057C20.4118 124.447 20.826 124.819 21.2456 125.175C28.0937 130.998 35.7671 135.422 44.2659 138.447C44.6579 138.586 45.0186 138.735 45.348 138.894C45.5752 139.003 45.6612 139.202 45.6059 139.491C45.595 139.551 45.5656 139.599 45.5175 139.637L45.1766 139.907C45.1237 139.949 45.0636 139.97 44.9963 139.97C37.6 139.973 30.2481 139.972 22.9408 139.967C22.6847 139.967 22.4202 139.93 22.1473 139.857C21.902 139.792 21.6171 139.735 21.2925 139.687C18.8591 139.333 16.5814 138.448 14.4594 137.033C13.6028 136.461 12.73 135.842 11.9996 135.108C11.4568 134.562 10.8887 134.044 10.4018 133.438C6.91582 129.089 5.69853 123.303 7.25306 117.879C7.42619 117.272 7.62216 116.658 7.84097 116.039Z" fill="#DDDDFF"/>
<path d="M92.4256 139.848C92.3084 139.685 92.128 139.554 91.982 139.411C91.923 139.355 91.9074 139.287 91.9351 139.209C92.0192 138.971 92.1942 138.84 92.4599 138.814C92.5334 138.807 92.6032 138.776 92.6582 138.724C92.8157 138.576 93.0039 138.51 93.2227 138.524C93.2531 138.526 93.2836 138.522 93.312 138.511C93.3404 138.5 93.366 138.483 93.3868 138.461C93.5581 138.281 93.7475 138.313 93.908 138.254C96.2163 137.399 98.1652 136.612 99.7546 135.893C104.059 133.943 108.234 131.455 112.281 128.43C113.527 127.498 114.663 126.521 115.844 125.54C116.342 125.126 116.814 124.712 117.258 124.297C119.963 121.775 122.488 118.892 124.833 115.65C125.173 115.179 125.453 114.647 125.855 114.229C126.724 113.325 127.547 114.422 127.846 115.177C128.49 116.798 128.864 118.518 128.966 120.337C128.997 120.892 129.056 121.408 129.143 121.884C129.35 123.02 129.018 124.113 128.948 125.246C128.932 125.497 128.889 125.746 128.818 125.992C128.726 126.317 128.737 126.643 128.645 126.97C127.297 131.717 124.519 135.331 120.31 137.812C118.916 138.632 117.35 139.218 115.612 139.57C115.226 139.648 114.862 139.689 114.521 139.693C114.227 139.696 113.953 139.748 113.698 139.848C113.48 139.932 113.25 139.974 113.01 139.974C106.267 139.967 99.4883 139.967 92.6727 139.974C92.5681 139.974 92.4857 139.932 92.4256 139.848Z" fill="#DDDDFF"/>
</svg>
