<svg width="28" height="29" viewBox="0 0 28 29" fill="none" xmlns="http://www.w3.org/2000/svg">
<path d="M10.2648 13.0586C10.1288 13.0449 9.96563 13.0449 9.81613 13.0586C6.58059 12.9499 4.01117 10.2989 4.01117 7.03609C4.01117 3.70537 6.70294 1 10.0472 1C13.378 1 16.0833 3.70537 16.0833 7.03609C16.0698 10.2989 13.5004 12.9499 10.2648 13.0586Z" stroke="#AAAACB" stroke-width="1.7479" stroke-linecap="round" stroke-linejoin="round"/>
<path d="M20.1209 3.71875C22.7583 3.71875 24.8791 5.85312 24.8791 8.47692C24.8791 11.0464 22.8398 13.1399 20.2976 13.2351C20.1889 13.2215 20.0665 13.2215 19.9442 13.2351" stroke="#AAAACB" stroke-width="1.7479" stroke-linecap="round" stroke-linejoin="round"/>
<path d="M3.46745 18.0749C0.177516 20.2772 0.177516 23.8662 3.46745 26.0551C7.20602 28.5565 13.3372 28.5565 17.0759 26.0551C20.3658 23.8527 20.3658 20.2637 17.0759 18.0749C13.3509 15.587 7.21961 15.587 3.46745 18.0749Z" stroke="#AAAACB" stroke-width="1.7479" stroke-linecap="round" stroke-linejoin="round"/>
<path d="M22.7448 25.4708C23.7236 25.2669 24.648 24.8726 25.4094 24.2881C27.5302 22.6975 27.5302 20.0737 25.4094 18.4831C24.6617 17.9121 23.7508 17.5314 22.7856 17.314" stroke="#AAAACB" stroke-width="1.7479" stroke-linecap="round" stroke-linejoin="round"/>
</svg>
