<svg width="25" height="24" viewBox="0 0 25 24" fill="none" xmlns="http://www.w3.org/2000/svg">
<path d="M7.49999 20L8.49999 20L17.93 20C19 20 19.91 19.33 20.12 18.39L21.46 12.39C21.73 11.15 20.68 10 19.27 10L15.04 10L16.56 5.06C16.88 4.03 16.04 3 14.88 3C14.3 3 13.74 3.24 13.36 3.65L7.49999 10L3.49999 10L3.49999 20L7.49999 20ZM14.1 4.33C14.29 4.12 14.58 4 14.88 4C15.14 4 15.38 4.11 15.51 4.3C15.58 4.4 15.66 4.56 15.6 4.77L14.08 9.71L13.68 11L15.04 11L19.27 11C19.68 11 20.07 11.17 20.3 11.46C20.42 11.61 20.55 11.86 20.48 12.18L19.14 18.18C19.04 18.65 18.53 19 17.93 19L8.49999 19L8.49999 10.39L14.1 4.33ZM4.49999 11L7.49999 11L7.49999 19L4.49999 19L4.49999 11Z" fill="#B6B6B6"/>
</svg>
