<svg width="50" height="50" viewBox="0 0 50 50" fill="none" xmlns="http://www.w3.org/2000/svg">
<rect x="0.5" y="0.5" width="49" height="49" rx="24.5" stroke="#DD4B39"/>
<path fill-rule="evenodd" clip-rule="evenodd" d="M25.21 23.5V27.1H31.165C30.925 28.645 29.365 31.63 25.21 31.63C21.625 31.63 18.7 28.66 18.7 25C18.7 21.34 21.625 18.37 25.21 18.37C27.25 18.37 28.615 19.24 29.395 19.99L32.245 17.245C30.415 15.535 28.045 14.5 25.21 14.5C19.405 14.5 14.71 19.195 14.71 25C14.71 30.805 19.405 35.5 25.21 35.5C31.27 35.5 35.29 31.24 35.29 25.24C35.29 24.55 35.215 24.025 35.125 23.5H25.21Z" fill="#DD4B39"/>
</svg>
