<svg width="25" height="24" viewBox="0 0 25 24" fill="none" xmlns="http://www.w3.org/2000/svg">
<path d="M8.00977 19.8018C9.33126 20.5639 10.8645 21 12.4996 21C17.4702 21 21.5 16.9706 21.5 12C21.5 7.02944 17.4706 3 12.5 3C7.52944 3 3.5 7.02944 3.5 12C3.5 13.6351 3.93604 15.1684 4.69819 16.4899L4.70114 16.495C4.77448 16.6221 4.81146 16.6863 4.82821 16.7469C4.84401 16.804 4.84842 16.8554 4.84437 16.9146C4.84003 16.9781 4.8186 17.044 4.77468 17.1758L4.00586 19.4823L4.00489 19.4853C3.84268 19.9719 3.76157 20.2152 3.81938 20.3774C3.86979 20.5187 3.98169 20.6303 4.12305 20.6807C4.28482 20.7384 4.52705 20.6577 5.01155 20.4962L5.01758 20.4939L7.32405 19.7251C7.45537 19.6813 7.52214 19.6591 7.58559 19.6548C7.64475 19.6507 7.69578 19.6561 7.75293 19.6719C7.81368 19.6887 7.87783 19.7257 8.00563 19.7994L8.00977 19.8018Z" stroke="#B6B6B6" stroke-width="2.16667" stroke-linecap="round" stroke-linejoin="round"/>
</svg>
