<svg width="24" height="24" viewBox="0 0 24 24" fill="none" xmlns="http://www.w3.org/2000/svg">
<path d="M15.8949 11.553C15.7245 11.214 15.3789 11 14.9997 11H12.9993V0.999984C12.9993 0.447984 12.5529 0 11.9997 0C11.4465 0 11.0001 0.447984 11.0001 0.999984V11H8.99973C8.62053 11 8.27492 11.214 8.10452 11.553C7.93652 11.892 7.97252 12.297 8.19932 12.6L11.1993 16.6C11.2125 16.617 11.2329 16.623 11.2473 16.639C11.3133 16.717 11.3913 16.777 11.4777 16.8319C11.5137 16.8539 11.5413 16.8829 11.5809 16.9009C11.7093 16.9609 11.8485 16.9999 11.9997 16.9999C12.1509 16.9999 12.2913 16.9609 12.4197 16.9009C12.4581 16.8829 12.4869 16.8539 12.5217 16.8319C12.6093 16.777 12.6873 16.717 12.7533 16.639C12.7653 16.623 12.7869 16.617 12.8001 16.6L15.8001 12.6C16.0281 12.297 16.0641 11.892 15.8949 11.553Z" fill="#B6B6B6"/>
<path d="M23.0004 15C22.4472 15 21.9996 15.448 21.9996 16V19C21.9996 20.6539 20.6544 22 18.9996 22H5.00041C3.34561 22 2.00041 20.6539 2.00041 19V16C2.00041 15.448 1.55279 15 0.999591 15C0.446391 15 0 15.448 0 16V19C0 21.757 2.24281 24 5.00041 24H18.9996C21.7572 24 24 21.757 24 19V16C24 15.448 23.5536 15 23.0004 15Z" fill="#B6B6B6"/>
</svg>
