<svg width="26" height="26" viewBox="0 0 26 26" fill="none" xmlns="http://www.w3.org/2000/svg">
<path d="M14.0685 5.65527H4.73119C2.67911 5.65527 1 7.33488 1 9.38641V23.0154C1 24.7549 2.24712 25.4987 3.77213 24.647L8.48831 22.0196C8.99233 21.7436 9.80739 21.7436 10.2999 22.0196L15.0161 24.647C16.5396 25.4987 17.7882 24.7549 17.7882 23.0154V9.38641C17.7997 7.33488 16.1206 5.65527 14.0685 5.65527Z" stroke="#B6B6B6" stroke-width="1.5" stroke-linecap="round" stroke-linejoin="round"/>
<path d="M17.7997 9.38641V23.0154C17.7997 24.7549 16.5526 25.4867 15.0276 24.647L10.3114 22.0196C9.80739 21.7436 8.99233 21.7436 8.48831 22.0196L3.77213 24.647C2.24712 25.4867 1 24.7549 1 23.0154V9.38641C1 7.33488 2.67911 5.65527 4.73119 5.65527H14.0685C16.1206 5.65527 17.7997 7.33488 17.7997 9.38641Z" stroke="#B6B6B6" stroke-width="1.5" stroke-linecap="round" stroke-linejoin="round"/>
<path d="M25 4.73113V18.36C25 20.0997 23.7529 20.8315 22.2279 19.9916L17.7997 17.5202V9.38607C17.7997 7.33454 16.1206 5.65493 14.0685 5.65493H8.20029V4.73113C8.20029 2.67959 9.8794 1 11.9315 1H21.2688C23.3209 1 25 2.67959 25 4.73113Z" stroke="#B6B6B6" stroke-width="1.5" stroke-linecap="round" stroke-linejoin="round"/>
</svg>
