<svg width="26" height="26" viewBox="0 0 26 26" fill="none" xmlns="http://www.w3.org/2000/svg">
<path d="M24.3018 7.34518L16.6601 1.23185C15.1668 0.041851 12.8335 0.0301843 11.3518 1.22018L3.71012 7.34518C2.61345 8.22018 1.94845 9.97018 2.18179 11.3468L3.65179 20.1435C3.99012 22.1152 5.82179 23.6668 7.81679 23.6668H20.1835C22.1551 23.6668 24.0218 22.0802 24.3601 20.1318L25.8301 11.3352C26.0401 9.97018 25.3751 8.22018 24.3018 7.34518ZM14.8751 19.0002C14.8751 19.4785 14.4785 19.8752 14.0001 19.8752C13.5218 19.8752 13.1251 19.4785 13.1251 19.0002V15.5002C13.1251 15.0218 13.5218 14.6252 14.0001 14.6252C14.4785 14.6252 14.8751 15.0218 14.8751 15.5002V19.0002Z" fill="#FF0000"/>
</svg>
