<?xml version="1.0" standalone="no"?>
<!DOCTYPE svg PUBLIC "-//W3C//DTD SVG 20010904//EN"
 "http://www.w3.org/TR/2001/REC-SVG-20010904/DTD/svg10.dtd">
<svg version="1.0" xmlns="http://www.w3.org/2000/svg"
 width="1500.000000pt" height="1601.000000pt" viewBox="0 0 1500.000000 1601.000000"
 preserveAspectRatio="xMidYMid meet">

<g transform="translate(0.000000,1601.000000) scale(0.100000,-0.100000)"
fill="#000000" stroke="none">
<path d="M6794 14766 c-3 -8 -3 -20 1 -26 4 -7 171 -10 516 -10 l509 0 0 -308
0 -309 -38 -11 c-49 -15 -117 -73 -145 -126 -20 -38 -22 -57 -25 -246 l-4
-205 -53 -47 c-112 -101 -175 -241 -175 -391 1 -100 12 -152 52 -236 30 -64
130 -177 187 -212 l23 -15 -56 -112 c-47 -94 -56 -120 -56 -166 0 -64 19 -113
58 -152 16 -16 93 -62 171 -102 l141 -74 0 -47 c0 -26 7 -56 16 -69 39 -56
127 -68 188 -27 l36 25 191 -95 c163 -81 198 -95 240 -95 59 0 113 21 153 58
16 16 81 132 152 275 111 223 124 254 124 300 0 64 -27 124 -70 161 -19 15
-114 68 -212 117 l-178 89 0 51 c0 45 -4 55 -34 85 -30 30 -41 34 -84 34 -36
0 -59 -7 -86 -25 l-37 -25 -137 69 c-151 76 -196 88 -264 71 -74 -19 -112 -59
-174 -181 -30 -60 -58 -109 -63 -109 -17 0 -89 59 -123 101 -151 186 -144 454
17 624 l48 50 11 -55 c15 -68 35 -106 78 -146 70 -67 156 -88 249 -61 69 21
121 64 153 129 24 47 26 63 26 175 l0 123 55 0 55 0 0 -40 c0 -33 3 -40 20
-40 19 0 20 7 20 110 0 103 -1 110 -20 110 -17 0 -20 -7 -20 -40 l0 -40 -55 0
-55 0 0 123 c0 113 -2 127 -26 176 -33 65 -98 116 -171 132 l-53 12 0 304 0
303 513 2 c504 3 512 3 512 23 0 20 -8 20 -1048 23 -910 2 -1048 0 -1053 -12z
m1059 -812 c54 -18 102 -63 128 -119 16 -35 19 -68 19 -282 l0 -242 -36 -25
c-24 -16 -31 -26 -22 -30 7 -3 0 -2 -16 1 -16 3 -27 2 -23 -3 3 -5 -15 -9 -39
-9 -24 0 -39 2 -34 3 6 2 -12 15 -39 28 -27 14 -57 36 -66 50 -9 14 -21 22
-27 18 -7 -4 -8 -3 -4 4 4 6 4 23 0 37 -4 15 -9 22 -13 17 -3 -6 -6 106 -6
248 0 142 3 253 6 248 4 -6 10 3 13 19 5 23 15 33 39 41 46 15 68 14 120 -4z
m289 -1105 l138 -69 -176 -353 c-97 -193 -177 -353 -179 -355 -6 -6 -271 131
-293 152 -36 32 -52 70 -52 120 0 39 19 84 123 288 126 250 142 272 208 288
52 12 83 3 231 -71z m325 -41 c13 -13 23 -33 23 -50 0 -31 -379 -799 -413
-835 -42 -46 -127 -14 -127 49 0 31 379 799 413 836 27 29 73 29 104 0z m236
-265 c94 -48 177 -88 184 -88 6 0 15 -4 20 -9 4 -5 3 -6 -3 -3 -7 4 -12 -2
-12 -16 0 -31 -225 -466 -258 -500 -32 -31 -95 -51 -133 -42 -14 3 -83 34
-153 68 -96 47 -126 66 -121 77 3 8 7 25 7 37 1 11 4 19 8 17 11 -7 30 36 24
52 -3 8 -2 12 4 9 12 -8 33 33 26 51 -3 8 -1 12 4 9 5 -3 58 91 117 210 59
118 109 215 111 215 1 0 80 -39 175 -87z"/>
<path d="M10013 13979 c-5 -3 -46 -13 -93 -22 -269 -48 -424 -191 -450 -415
-5 -44 -7 -88 -5 -98 2 -11 7 -36 10 -56 3 -21 22 -59 42 -84 l35 -47 -28 -21
c-50 -35 -103 -98 -131 -154 -38 -78 -44 -194 -13 -274 22 -59 103 -154 121
-142 18 11 8 51 -20 78 -102 98 -91 296 23 405 34 33 36 34 36 12 0 -29 29
-132 42 -148 8 -10 -2 -13 -46 -13 -32 0 -56 -4 -56 -10 0 -7 23 -10 62 -8 58
3 62 4 71 33 12 38 14 40 29 27 13 -10 106 -39 161 -49 22 -4 27 -2 27 15 0
35 -65 67 -136 67 l-60 0 14 50 c8 28 16 51 17 53 2 2 20 -5 42 -16 182 -93
405 -92 596 2 l87 43 0 -43 c0 -23 4 -54 10 -68 8 -23 4 -31 -35 -71 -24 -25
-56 -71 -72 -103 -25 -50 -28 -68 -28 -152 0 -84 3 -101 27 -145 60 -113 154
-169 283 -169 99 0 170 29 248 103 75 71 109 144 115 246 4 64 11 93 37 145
149 297 90 592 -157 789 -54 43 -242 151 -263 151 -7 0 -6 -7 19 -175 9 -55
29 -192 46 -305 37 -250 56 -330 79 -330 31 0 117 -58 143 -97 39 -57 51 -107
46 -183 -16 -212 -249 -356 -433 -266 -134 66 -182 225 -110 372 24 48 114
144 136 144 12 0 12 86 0 147 -5 26 -17 100 -26 163 -44 295 -65 411 -81 446
-26 54 -87 112 -148 140 -52 24 -199 47 -213 33z"/>
<path d="M1420 13163 c-151 -25 -285 -132 -343 -273 l-22 -55 0 -980 0 -980
29 -63 c56 -122 148 -206 263 -242 59 -18 93 -20 359 -20 l294 0 0 -127 c0
-71 5 -145 11 -167 14 -50 82 -118 135 -134 30 -9 159 -12 468 -12 l426 0 -3
-3392 -2 -3393 -69 -7 c-437 -43 -799 -342 -920 -760 -13 -46 -27 -110 -30
-143 -4 -33 -9 -75 -12 -93 l-5 -32 -225 0 -225 0 3 -23 3 -22 1510 0 c1503 0
1510 0 1510 20 0 19 -8 20 -226 23 l-226 2 -12 96 c-18 136 -44 224 -106 349
-159 325 -486 552 -837 581 l-78 7 0 338 c0 187 0 1691 0 3344 0 1653 0 3028
0 3055 l0 50 290 0 290 0 0 -109 c0 -106 1 -110 28 -139 17 -18 44 -33 65 -37
l36 -7 -18 -37 c-57 -111 -103 -288 -116 -447 -7 -79 -9 -83 -44 -109 -117
-88 -179 -259 -151 -414 48 -268 296 -451 590 -439 142 6 186 32 292 174 59
77 109 103 168 85 51 -15 88 -47 167 -145 36 -45 78 -91 94 -104 29 -23 29
-24 29 -132 l0 -109 -302 -3 -303 -3 -48 -28 c-93 -55 -132 -169 -92 -272 19
-52 82 -111 134 -125 20 -5 134 -10 253 -10 l218 0 2 -2587 c3 -2580 3 -2588
23 -2588 20 0 20 8 23 2588 l2 2587 2838 -1 2837 -1 -185 -29 c-102 -16 -203
-31 -225 -34 -181 -25 -521 -87 -627 -114 -204 -52 -430 -214 -738 -528 -239
-243 -402 -436 -686 -813 -191 -253 -298 -400 -293 -403 2 -1 13 -7 25 -13 19
-11 30 1 142 157 404 557 825 1042 1117 1284 118 99 277 200 364 234 145 55
612 136 1339 231 l226 30 1078 0 1078 0 0 -536 0 -536 -55 -237 c-31 -130 -60
-253 -66 -273 l-10 -38 -322 0 c-260 0 -338 -4 -402 -17 -71 -15 -199 -17
-1130 -19 -757 -1 -1050 -5 -1053 -13 -3 -8 391 -11 1449 -11 799 0 1455 -2
1458 -5 12 -13 -21 -121 -47 -155 -52 -63 -94 -80 -204 -80 -98 0 -98 0 -98
25 0 14 -4 25 -10 25 -5 0 -10 -12 -10 -27 l0 -28 -1240 3 -1240 2 0 25 c0 14
-4 25 -10 25 -5 0 -10 -12 -10 -27 l0 -28 -111 3 c-104 3 -113 2 -135 -19 -13
-12 -24 -26 -24 -31 0 -4 257 -8 570 -8 l570 0 0 -1199 0 -1198 -67 -6 c-67
-7 -152 -25 -205 -46 -21 -8 -28 -17 -28 -37 0 -21 4 -25 18 -21 150 49 157
50 302 51 126 1 155 -2 220 -22 292 -92 497 -311 565 -602 8 -36 15 -82 15
-102 l0 -38 -800 0 -801 0 7 53 c8 72 31 161 59 229 l23 56 -28 -10 c-16 -5
-33 -15 -38 -21 -19 -23 -52 -139 -63 -223 -11 -75 -14 -84 -33 -84 -12 -1
-79 -2 -151 -3 -118 -2 -130 -4 -133 -21 -2 -10 2 -22 10 -27 7 -5 527 -9
1154 -9 1005 0 1143 2 1154 15 10 12 10 18 0 30 -10 12 -41 15 -160 15 l-147
0 -6 73 c-24 287 -238 568 -520 685 -77 32 -203 62 -262 62 l-35 0 0 1200 0
1200 908 2 907 3 40 22 c94 50 148 143 147 252 -1 61 45 297 68 346 5 12 9
-747 9 -1903 l1 -1923 23 3 22 3 3 2045 2 2045 128 540 128 540 239 5 c221 5
243 7 280 26 50 27 69 48 94 104 39 86 19 181 -50 247 -54 51 -79 57 -275 62
l-181 6 29 125 c16 69 122 514 235 990 198 829 206 869 207 970 1 133 -24 218
-95 324 -58 88 -119 143 -209 190 -121 64 -140 66 -492 66 -176 0 -318 -4
-318 -9 0 -28 34 -32 282 -31 290 1 385 -11 485 -60 123 -61 229 -183 275
-318 41 -123 34 -197 -54 -567 -63 -261 -213 -893 -374 -1577 l-26 -108 -2199
0 -2199 0 0 368 c0 396 -4 431 -54 511 -34 53 -101 110 -165 140 l-56 26 -582
3 -583 3 0 49 c0 27 -4 52 -10 55 -6 4 -10 -17 -10 -54 l0 -61 -1202 0 c-748
0 -1216 -4 -1238 -10 -61 -17 -143 -73 -182 -125 -65 -86 -70 -112 -77 -380
l-6 -240 -40 50 c-66 82 -147 164 -180 185 -65 40 -150 35 -209 -11 -14 -11
-51 -54 -82 -95 -77 -102 -121 -127 -234 -132 -264 -13 -497 161 -541 402 -20
112 13 233 87 316 25 27 49 50 53 50 3 0 14 -21 24 -47 20 -57 41 -83 92 -117
75 -52 189 -25 234 54 78 139 -74 271 -250 218 -22 -6 -42 -9 -45 -5 -10 10
26 227 53 311 14 44 41 111 59 149 l34 67 46 0 c58 0 111 25 129 61 10 19 15
60 15 129 l0 100 38 0 c90 0 169 48 203 125 15 32 19 66 19 177 l0 137 553 3
553 3 75 37 c91 45 158 113 199 201 36 75 50 165 50 318 l0 117 218 5 c165 3
230 8 269 21 205 65 352 187 437 361 51 104 69 183 69 305 0 122 -18 201 -69
306 -92 188 -271 326 -477 368 -53 11 -131 16 -262 16 l-185 0 0 53 c-1 84
-16 178 -40 240 -27 71 -116 171 -189 210 -108 59 -12 57 -2126 55 -1067 0
-1951 -3 -1965 -5z m2596 -54 c123 -22 228 -104 283 -219 l26 -55 0 -980 0
-980 -29 -57 c-39 -77 -108 -144 -186 -182 l-65 -31 -1330 0 -1330 0 -57 27
c-80 37 -152 108 -191 187 l-32 66 0 970 0 970 32 67 c52 111 157 194 273 217
68 13 2533 13 2606 0z m1350 0 c123 -22 230 -105 282 -217 l27 -57 3 -960 c3
-1067 6 -1008 -65 -1113 -45 -66 -117 -119 -194 -143 -57 -18 -101 -19 -656
-19 l-595 0 50 40 c62 48 93 88 129 165 l28 60 3 972 c2 963 2 973 -18 1034
-27 79 -65 134 -137 198 l-57 51 570 0 c368 0 591 -4 630 -11z m655 -583 c196
-68 351 -226 412 -421 31 -101 31 -272 -1 -369 -45 -135 -107 -228 -207 -309
-72 -58 -110 -79 -209 -112 -81 -27 -241 -43 -265 -27 -22 16 -5 42 27 42 37
0 129 32 193 67 66 35 171 148 209 223 129 255 47 555 -194 712 -62 40 -167
78 -217 78 l-29 0 0 68 c0 38 3 72 8 77 15 16 200 -4 273 -29z m189 9 c217
-58 398 -242 454 -461 20 -78 20 -220 1 -302 -28 -119 -101 -240 -199 -329
-82 -75 -274 -163 -331 -151 -12 2 8 19 57 50 215 136 330 362 315 621 -10
180 -69 311 -201 443 -45 44 -106 95 -136 112 -61 35 -48 41 40 17z m-367
-195 c281 -87 425 -417 298 -685 -55 -116 -172 -216 -298 -255 -115 -35 -103
-91 -103 470 0 561 -12 505 103 470z m-2235 -1934 c-3 -121 -6 -136 -28 -169
-52 -77 -6 -72 -750 -72 l-665 0 -35 22 c-63 39 -74 71 -78 220 l-4 133 229 2
c125 2 477 2 782 0 l553 -2 -4 -134z m652 7 c0 -114 -3 -132 -23 -167 -43 -78
-56 -81 -364 -84 -150 -2 -273 0 -273 3 0 4 8 19 19 33 31 44 41 100 41 225
l0 117 300 0 300 0 0 -127z m-521 -390 c1 20 28 22 68 5 15 -7 66 -15 113 -18
78 -6 73 -7 -57 -8 l-143 -2 1 28 1 27 8 -25 c5 -17 8 -19 9 -7z m-12 -80 c-3
-10 -5 -4 -5 12 0 17 2 24 5 18 2 -7 2 -21 0 -30z m188 -8 c11 -22 25 -43 30
-47 6 -4 -35 -7 -90 -7 -55 0 -94 3 -87 6 10 4 8 9 -7 20 -13 9 -21 25 -21 44
l0 30 78 -3 77 -3 20 -40z m-5 -691 c76 -31 91 -116 29 -168 -60 -51 -149 -24
-196 59 -13 23 -22 53 -21 70 3 25 9 31 43 41 56 17 98 17 145 -2z m3687 -142
c66 -35 110 -79 140 -140 l28 -57 3 -382 3 -383 -131 0 c-71 0 -695 0 -1385 0
-690 0 -1284 0 -1320 0 l-65 0 0 91 c0 90 0 91 23 84 12 -4 49 -9 83 -12 67
-6 108 9 195 73 46 33 47 33 79 18 72 -36 187 2 224 74 48 94 11 210 -81 248
-156 66 -305 -96 -228 -246 12 -22 10 -26 -19 -48 -50 -38 -123 -72 -154 -72
-16 0 -49 7 -75 16 l-47 16 0 261 c0 254 1 263 24 312 31 66 98 130 161 155
49 19 82 19 1275 17 l1225 -2 42 -23z m1110 13 c66 -20 148 -93 179 -160 24
-50 24 -53 24 -432 l0 -383 -545 0 -544 0 -3 393 -3 392 -28 56 c-15 31 -49
77 -77 103 l-49 46 498 0 c414 0 506 -3 548 -15z m-3300 -479 c27 -29 33 -44
33 -80 0 -53 -33 -99 -84 -116 -31 -10 -86 -5 -86 7 0 3 13 21 30 39 37 43 48
81 28 100 -18 19 -48 8 -48 -17 0 -10 -13 -33 -30 -51 -25 -28 -31 -31 -40
-18 -15 23 -12 93 6 119 50 70 135 78 191 17z m8400 -568 c70 -39 108 -129 84
-200 -15 -44 -68 -96 -112 -108 -22 -7 -1702 -10 -4789 -10 -4615 0 -4756 1
-4796 19 -57 26 -87 72 -92 140 -3 46 0 62 20 90 29 44 66 71 109 81 19 4
2174 7 4789 7 4507 -2 4757 -3 4787 -19z m-549 -390 c-3 -13 -47 -203 -99
-423 l-94 -399 -5 74 c-3 41 -4 231 -2 423 l3 347 100 0 c100 0 101 0 97 -22z
m-10027 -4423 c216 -37 401 -136 552 -294 87 -91 126 -146 177 -249 59 -121
91 -236 103 -374 l5 -48 -1006 0 -1005 0 6 78 c16 204 111 416 259 577 229
250 575 369 909 310z"/>
<path d="M1445 12836 c-44 -20 -83 -60 -105 -108 -19 -41 -20 -73 -20 -744 l0
-700 25 -51 c17 -33 41 -61 68 -79 l42 -29 1251 -3 1250 -2 45 23 c27 14 57
42 77 71 l32 49 -2 728 -3 727 -30 43 c-16 23 -50 53 -74 66 l-44 23 -1241 0
c-1010 -1 -1247 -3 -1271 -14z m2536 -59 c18 -12 44 -38 56 -56 l23 -34 0
-702 0 -702 -23 -34 c-12 -18 -38 -44 -56 -56 l-34 -23 -1224 0 c-1318 0
-1262 -2 -1309 51 -12 13 -26 39 -33 58 -15 46 -16 1377 0 1418 14 37 47 73
84 89 24 11 257 13 1256 14 l1226 0 34 -23z"/>
<path d="M2510 12643 c0 -25 -4 -28 -33 -29 -160 -4 -251 -76 -264 -208 -3
-38 0 -60 14 -85 l19 -33 -32 -32 c-38 -38 -59 -101 -50 -150 7 -38 49 -96 61
-84 8 7 5 14 -20 58 -27 46 -13 124 28 159 13 10 16 6 22 -29 6 -38 19 -52 27
-30 2 7 19 5 47 -5 53 -18 51 -18 51 -1 0 17 -54 40 -75 32 -13 -5 -15 -1 -9
17 3 12 7 23 8 24 1 1 28 -8 61 -19 70 -24 151 -20 220 11 l43 19 5 -25 c3
-18 -5 -39 -26 -70 -76 -107 -14 -243 111 -243 90 0 172 80 172 169 0 16 12
54 26 86 53 114 29 234 -59 311 -44 38 -136 89 -144 80 -5 -5 15 -159 38 -291
9 -55 14 -62 47 -80 44 -24 62 -56 62 -113 0 -36 -6 -49 -37 -83 -44 -47 -92
-62 -143 -45 -41 13 -80 67 -80 108 0 41 28 96 58 116 28 18 28 37 -4 241 -15
99 -21 119 -47 148 -16 18 -40 36 -53 39 -18 5 -24 13 -24 35 0 16 -4 29 -10
29 -5 0 -10 -12 -10 -27z"/>
<path d="M3780 12643 c-18 -7 -65 -52 -59 -57 2 -2 22 11 43 30 22 19 37 34
35 33 -2 0 -11 -3 -19 -6z"/>
<path d="M3860 12627 c0 -5 9 -20 20 -34 11 -14 20 -22 20 -17 -1 12 -39 61
-40 51z"/>
<path d="M3710 12543 c0 -14 3 -23 7 -19 10 10 11 46 1 46 -4 0 -8 -12 -8 -27z"/>
<path d="M3868 12495 c-26 -35 -22 -42 7 -11 26 28 30 36 18 36 -5 0 -16 -11
-25 -25z"/>
<path d="M3726 12495 c6 -15 44 -41 44 -30 0 6 -38 45 -45 45 -2 0 -2 -7 1
-15z"/>
<path d="M3780 12460 c0 -5 5 -10 11 -10 5 0 7 5 4 10 -3 6 -8 10 -11 10 -2 0
-4 -4 -4 -10z"/>
<path d="M3825 12460 c-3 -5 -1 -10 4 -10 6 0 11 5 11 10 0 6 -2 10 -4 10 -3
0 -8 -4 -11 -10z"/>
<path d="M2460 12151 c0 -9 81 -33 89 -26 2 3 -2 11 -9 20 -13 16 -80 21 -80
6z"/>
<path d="M2282 12133 c4 -20 68 -32 68 -14 0 6 -9 11 -19 11 -11 0 -23 5 -26
10 -10 17 -27 11 -23 -7z"/>
<path d="M2445 12099 c-9 -14 23 -41 44 -37 22 4 25 28 4 28 -11 0 -24 5 -30
11 -8 8 -13 7 -18 -2z"/>
<path d="M2825 11628 c-18 -61 -130 -106 -236 -96 -42 4 -61 13 -115 53 -21
15 -28 -1 -11 -25 59 -85 287 -75 366 16 19 21 31 44 29 57 -5 33 -23 30 -33
-5z"/>
<path d="M1528 10963 c-71 -45 -69 -161 4 -199 40 -21 407 -20 447 1 28 14 61
68 61 100 0 31 -30 81 -59 98 -43 25 -412 25 -453 0z m402 -63 c0 -6 -13 -18
-30 -29 -16 -10 -27 -21 -23 -25 4 -3 -72 -5 -167 -4 -166 3 -175 4 -177 23
l-3 20 9 -20 c9 -19 10 -19 10 2 1 12 9 27 19 32 23 14 362 14 362 1z"/>
<path d="M5782 8713 c-71 -35 -110 -116 -93 -194 20 -90 90 -142 184 -136 147
9 216 173 120 288 -49 58 -142 76 -211 42z m165 -77 c62 -67 35 -167 -52 -196
-75 -25 -155 34 -155 114 0 113 131 165 207 82z"/>
<path d="M10480 12990 c0 -6 49 -10 126 -10 81 0 123 4 119 10 -4 6 -57 10
-126 10 -73 0 -119 -4 -119 -10z"/>
<path d="M10028 12983 c-10 -2 -18 -12 -18 -22 0 -14 18 -23 79 -39 92 -26
121 -27 121 -8 0 40 -120 85 -182 69z"/>
<path d="M9617 12953 c-26 -25 20 -81 74 -89 45 -7 80 16 60 40 -7 9 -28 16
-47 16 -23 0 -37 6 -44 20 -11 20 -31 26 -43 13z"/>
<path d="M9975 12850 c-22 -36 37 -83 98 -78 34 2 42 7 42 23 0 16 -8 21 -36
23 -21 2 -45 12 -54 23 -20 21 -40 25 -50 9z"/>
<path d="M10826 11868 c-3 -7 -7 -30 -11 -51 -8 -50 -59 -106 -132 -145 -202
-107 -518 -101 -608 12 -50 62 -46 59 -62 43 -13 -12 -13 -19 1 -50 17 -43 78
-89 149 -114 73 -25 294 -25 392 1 205 53 327 163 313 282 -3 30 -35 47 -42
22z"/>
<path d="M11226 11247 c-45 -55 -93 -157 -106 -226 -33 -173 14 -330 165 -556
182 -272 407 -516 905 -983 l55 -52 -99 0 c-247 0 -563 -78 -898 -221 -220
-93 -538 -266 -538 -291 0 -6 13 -38 30 -72 54 -111 73 -204 72 -361 0 -77 -2
-153 -4 -170 l-3 -30 70 -8 c86 -10 506 7 710 28 192 21 403 56 563 96 137 33
331 95 347 110 5 5 15 9 23 9 22 0 209 93 280 139 43 28 62 47 62 61 0 36 -28
33 -93 -8 -59 -37 -220 -122 -232 -122 -3 0 -5 59 -5 130 0 80 -4 130 -10 130
-6 0 -10 -53 -10 -139 0 -136 0 -139 -22 -144 -13 -3 -70 -21 -128 -42 -315
-110 -743 -174 -1278 -191 l-207 -7 -1 139 c-1 152 -18 256 -60 359 -14 33
-26 64 -27 69 -5 22 354 213 538 286 378 151 703 214 972 189 64 -6 143 -19
177 -29 52 -17 63 -17 75 -5 7 7 11 20 8 29 -6 16 -84 42 -166 55 -57 9 -41
-4 -332 268 -494 462 -810 861 -875 1106 -16 61 -18 174 -3 237 13 55 50 131
90 181 17 21 29 47 27 56 -6 33 -35 25 -72 -20z"/>
<path d="M7517 10543 c-12 -11 -8 -165 3 -158 9 5 13 165 5 165 -1 0 -5 -3 -8
-7z"/>
<path d="M9339 10363 c-111 -286 -193 -870 -201 -1433 l-3 -165 25 0 25 0 11
271 c17 389 45 667 95 919 22 110 70 296 93 363 8 23 13 49 10 57 -10 25 -44
17 -55 -12z"/>
<path d="M6975 9990 c3 -6 50 -10 106 -10 59 0 99 4 99 10 0 6 -42 10 -106 10
-67 0 -103 -4 -99 -10z"/>
<path d="M11560 7463 c-315 -52 -520 -226 -590 -499 -21 -82 -18 -107 13 -102
17 2 23 15 34 68 8 36 32 103 55 150 100 206 301 321 591 337 59 3 110 9 112
14 3 4 2 14 -1 23 -5 13 -22 16 -98 15 -50 -1 -102 -4 -116 -6z"/>
<path d="M5556 3611 c-4 -5 -4 -15 0 -23 10 -23 1266 -1061 1291 -1066 18 -3
23 0 23 16 0 15 -173 165 -637 551 -351 292 -646 531 -655 531 -9 0 -19 -4
-22 -9z"/>
<path d="M10205 3187 c-1159 -548 -1245 -590 -1245 -607 0 -10 7 -20 15 -23
15 -6 1479 683 1504 708 14 13 14 17 0 30 -13 13 -44 1 -274 -108z"/>
<path d="M0 505 l0 -505 7500 0 7500 0 0 505 0 505 -7500 0 -7500 0 0 -505z
m683 163 c19 -29 48 -79 66 -110 l32 -58 -48 -82 c-27 -46 -56 -84 -64 -86 -9
-1 -24 13 -36 35 -21 38 -21 38 -2 73 23 43 24 83 3 120 -47 79 -168 79 -209
0 -41 -79 8 -167 98 -177 40 -5 50 -11 68 -40 34 -55 23 -63 -83 -63 -51 0
-98 4 -104 8 -12 8 -124 203 -124 216 0 4 27 54 61 112 l61 104 124 0 124 0
33 -52z m2094 -280 c-1 -62 -3 -12 -3 112 0 124 2 174 3 113 2 -62 2 -164 0
-225z m-1837 247 c0 -20 -5 -25 -25 -25 -20 0 -25 5 -25 25 0 20 5 25 25 25
20 0 25 -5 25 -25z m1550 -30 c0 -18 5 -25 20 -25 13 0 20 -7 20 -19 0 -10 -9
-21 -20 -24 -16 -4 -20 -14 -20 -52 0 -38 4 -48 20 -52 11 -3 20 -14 20 -24 0
-14 -7 -19 -28 -19 -41 0 -52 17 -52 83 0 50 -3 60 -20 64 -11 3 -20 11 -20
19 0 7 9 18 20 24 11 6 20 20 20 30 0 13 7 20 20 20 15 0 20 -7 20 -25z
m10950 -77 l0 -103 -28 -2 c-50 -4 -70 6 -81 40 -23 68 29 131 81 98 16 -10
18 -8 18 29 0 22 2 40 5 40 3 0 5 -46 5 -102z m-8950 30 l0 -62 33 32 c44 43
71 42 30 0 l-32 -33 30 -39 c37 -51 28 -61 -12 -13 -34 41 -49 40 -49 -4 0
-16 -4 -29 -10 -29 -6 0 -10 42 -10 105 0 63 4 105 10 105 6 0 10 -27 10 -62z
m8800 -38 c0 -60 -4 -100 -10 -100 -6 0 -10 40 -10 100 0 60 4 100 10 100 6 0
10 -40 10 -100z m450 90 c0 -5 -20 -10 -45 -10 -43 0 -45 -1 -45 -29 0 -25 3
-28 25 -23 35 6 65 -23 65 -64 0 -39 -22 -64 -56 -64 -25 0 -70 37 -59 48 4 4
12 0 18 -9 21 -27 46 -30 67 -9 23 23 25 39 6 65 -10 14 -21 17 -50 12 -40 -6
-42 -1 -30 62 6 30 9 31 55 31 27 0 49 -4 49 -10z m131 0 c32 -17 24 -62 -21
-119 -22 -28 -40 -53 -40 -55 0 -3 21 -7 48 -9 42 -3 41 -4 -15 -5 -35 -1 -63
1 -63 4 0 4 20 31 45 59 52 62 59 91 28 112 -20 14 -24 13 -48 -11 -30 -31
-37 -32 -28 -8 13 38 55 52 94 32z m160 0 c20 -11 27 -64 9 -75 -7 -4 -5 -14
5 -28 8 -12 15 -28 15 -36 0 -25 -32 -51 -62 -51 -31 0 -73 35 -62 52 5 8 11
5 17 -9 20 -46 91 -34 85 14 -2 20 -12 30 -38 39 -32 11 -33 13 -9 13 33 1 53
24 44 49 -8 29 -41 33 -70 10 -20 -16 -25 -17 -25 -4 0 30 54 45 91 26z m165
-4 c16 -12 19 -27 19 -86 0 -59 -3 -74 -19 -86 -26 -19 -55 -18 -78 3 -25 22
-26 138 -1 165 19 22 52 23 79 4z m144 -86 c0 -60 -4 -100 -10 -100 -6 0 -10
35 -10 86 l0 86 -30 -7 c-16 -4 -30 -4 -30 -1 0 6 57 34 73 35 4 1 7 -44 7
-99z m160 0 c0 -60 -4 -100 -10 -100 -6 0 -10 35 -10 86 l0 86 -30 -7 c-16 -4
-30 -4 -30 -1 0 6 57 34 73 35 4 1 7 -44 7 -99z m200 94 c0 -16 -84 -194 -92
-194 -8 0 -3 14 46 123 14 32 26 59 26 62 0 2 -26 6 -57 8 l-58 3 68 2 c37 1
67 -1 67 -4z m-11665 -95 c15 -44 29 -78 31 -76 2 2 17 39 33 83 16 43 34 80
40 82 6 2 -3 -34 -20 -80 -17 -45 -34 -91 -36 -101 -10 -33 -28 -11 -60 74
-33 88 -39 114 -24 104 5 -3 21 -41 36 -86z m1015 14 c18 -43 35 -81 39 -85 3
-4 21 31 40 78 47 115 61 112 61 -16 0 -120 -18 -135 -22 -19 l-3 82 -33 -82
c-19 -44 -37 -81 -42 -81 -4 0 -23 37 -41 83 l-34 82 -3 -82 c-4 -118 -22
-104 -22 17 0 127 15 132 60 23z m-580 47 c0 -12 7 -20 18 -21 16 -1 16 -2 0
-6 -24 -6 -27 -123 -3 -123 8 0 15 -5 15 -11 0 -6 -10 -9 -22 -7 -21 3 -23 9
-26 71 -2 55 -6 67 -20 68 -16 1 -15 2 1 6 9 2 17 13 17 24 0 10 5 19 10 19 6
0 10 -9 10 -20z m1310 0 c0 -12 7 -20 18 -21 16 -1 16 -2 0 -6 -24 -6 -27
-123 -3 -123 8 0 15 -5 15 -11 0 -6 -10 -9 -22 -7 -21 3 -23 9 -26 71 -2 55
-6 67 -20 68 -16 1 -15 2 1 6 9 2 17 13 17 24 0 10 5 19 10 19 6 0 10 -9 10
-20z m-4197 -32 c55 -64 -31 -151 -101 -102 -16 11 -22 25 -22 53 0 72 76 103
123 49z m355 -66 l3 -92 -26 0 c-25 0 -25 0 -25 88 0 92 4 105 30 100 12 -3
16 -22 18 -96z m198 73 c26 -26 25 -45 -2 -45 -9 0 -22 7 -31 16 -22 21 -55
14 -72 -18 -13 -23 -13 -30 -1 -52 15 -30 60 -36 80 -11 14 17 20 18 40 5 12
-8 11 -13 -9 -34 -31 -33 -65 -40 -105 -21 -62 30 -75 107 -27 156 39 38 91
40 127 4z m205 -4 c76 -77 -7 -202 -104 -156 -93 44 -64 185 38 185 27 0 44
-8 66 -29z m115 18 c4 -8 9 -8 17 0 13 13 56 14 74 3 20 -13 33 -61 33 -123 0
-56 -1 -59 -25 -59 -24 0 -25 2 -25 69 0 61 -2 70 -20 76 -36 11 -50 -12 -50
-81 0 -62 -1 -64 -25 -64 -25 0 -25 1 -25 88 0 49 3 92 7 95 10 11 31 8 39 -4z
m285 -10 c20 -20 20 -22 4 -31 -11 -7 -21 -6 -28 1 -6 6 -21 11 -34 11 -33 0
-29 -28 5 -36 88 -21 98 -93 15 -118 -25 -8 -78 15 -86 38 -8 21 23 29 44 10
20 -18 54 -15 54 5 0 7 -18 19 -39 26 -21 8 -43 20 -47 27 -40 62 59 120 112
67z m197 1 c12 -12 22 -25 22 -31 0 -19 -31 -21 -50 -4 -25 22 -51 16 -69 -17
-31 -55 31 -106 78 -64 23 21 50 4 35 -21 -20 -32 -60 -46 -99 -33 -45 15 -65
44 -65 96 0 35 5 47 31 68 38 32 86 34 117 6z m199 5 c26 -19 47 -77 38 -107
-18 -56 -69 -85 -121 -68 -43 15 -64 45 -64 93 0 75 87 124 147 82z m123 -49
c0 -74 17 -103 50 -86 15 8 20 24 22 78 3 61 5 67 26 70 21 3 22 1 22 -92 0
-89 -1 -96 -20 -96 -11 0 -20 4 -20 10 0 5 -13 1 -29 -8 -29 -16 -31 -16 -58
4 -49 36 -59 184 -13 184 18 0 20 -7 20 -64z m11250 44 c0 -5 -4 -10 -10 -10
-5 0 -10 5 -10 10 0 6 5 10 10 10 6 0 10 -4 10 -10z m-10256 -16 c9 -8 16 -24
16 -35 0 -16 -7 -19 -50 -19 -43 0 -50 -3 -50 -20 0 -29 43 -54 69 -41 28 15
36 14 21 -4 -7 -8 -25 -15 -40 -15 -33 0 -70 40 -70 75 0 56 69 95 104 59z
m137 6 c10 -6 19 -18 19 -26 0 -13 -5 -11 -27 5 -23 19 -29 20 -47 8 -31 -21
-34 -80 -5 -100 23 -17 47 -12 66 12 11 14 12 14 13 -2 0 -22 -41 -41 -73 -33
-29 7 -52 55 -43 90 12 50 53 69 97 46z m241 -7 c27 -24 25 -97 -4 -117 -12
-9 -32 -16 -44 -16 -27 0 -64 44 -64 75 0 58 71 95 112 58z m128 7 c0 -5 -10
-10 -22 -12 -21 -3 -23 -9 -26 -65 -4 -88 -22 -79 -22 10 l0 73 35 1 c19 1 35
-3 35 -7z m108 -2 c7 -7 12 -16 12 -22 0 -6 -5 -5 -12 2 -7 7 -25 12 -40 12
-41 0 -39 -36 2 -45 30 -7 60 -29 60 -45 0 -18 -33 -40 -59 -40 -15 0 -36 9
-46 20 -21 24 -17 25 21 6 20 -11 33 -12 46 -5 32 17 20 32 -44 58 -47 18 -31
71 22 71 14 0 31 -5 38 -12z m456 -4 c11 -10 16 -34 16 -73 l0 -57 -45 -2
c-42 -1 -75 15 -75 39 0 20 41 49 70 49 20 0 30 5 30 15 0 30 -54 39 -72 11
-4 -6 -11 -7 -15 -2 -11 11 26 36 53 36 13 0 30 -7 38 -16z m126 6 c0 -5 -10
-10 -22 -12 -21 -3 -23 -9 -26 -65 -4 -88 -22 -79 -22 10 l0 73 35 1 c19 1 35
-3 35 -7z m254 -6 c9 -8 16 -24 16 -35 0 -16 -7 -19 -50 -19 -43 0 -50 -3 -50
-20 0 -29 43 -54 69 -41 28 15 36 14 21 -4 -7 -8 -25 -15 -40 -15 -33 0 -70
40 -70 75 0 56 69 95 104 59z m8806 -114 c0 -5 -4 -10 -10 -10 -5 0 -10 5 -10
10 0 6 5 10 10 10 6 0 10 -4 10 -10z"/>
<path d="M13348 525 c-24 -53 26 -109 68 -75 17 15 19 71 2 88 -21 21 -57 14
-70 -13z"/>
<path d="M14133 595 c-14 -10 -18 -27 -18 -75 0 -66 19 -95 53 -83 26 10 32
24 32 83 0 30 -4 60 -8 66 -13 19 -40 23 -59 9z"/>
<path d="M1234 515 c-14 -21 -14 -30 -4 -54 20 -49 81 -46 94 4 16 62 -56 102
-90 50z"/>
<path d="M2044 514 c-34 -50 17 -111 65 -78 40 28 19 104 -29 104 -11 0 -27
-12 -36 -26z"/>
<path d="M3192 534 c-34 -23 -26 -34 24 -34 49 0 55 12 18 37 -17 11 -23 10
-42 -3z"/>
<path d="M3561 533 c-14 -9 -21 -25 -21 -48 0 -68 80 -83 96 -19 14 55 -33 97
-75 67z"/>
<path d="M4255 476 c-22 -16 -14 -46 14 -46 35 0 51 12 51 36 0 18 -5 24 -23
24 -13 0 -32 -6 -42 -14z"/>
<path d="M4642 534 c-34 -23 -26 -34 24 -34 49 0 55 12 18 37 -17 11 -23 10
-42 -3z"/>
</g>
</svg>
