<svg width="27" height="24" viewBox="0 0 27 24" fill="none" xmlns="http://www.w3.org/2000/svg">
<path d="M20.8033 11H5.63664C4.44002 11 3.46997 11.8954 3.46997 13V20C3.46997 21.1046 4.44002 22 5.63664 22H20.8033C21.9999 22 22.97 21.1046 22.97 20V13C22.97 11.8954 21.9999 11 20.8033 11Z" stroke="white" stroke-width="2" stroke-linecap="round" stroke-linejoin="round"/>
<path d="M7.80334 11V7C7.80334 5.67392 8.37403 4.40215 9.38985 3.46447C10.4057 2.52678 11.7834 2 13.22 2C14.6566 2 16.0344 2.52678 17.0502 3.46447C18.066 4.40215 18.6367 5.67392 18.6367 7V11" stroke="white" stroke-width="2" stroke-linecap="round" stroke-linejoin="round"/>
</svg>
