<svg width="100" height="100" viewBox="0 0 100 100" fill="none" xmlns="http://www.w3.org/2000/svg">
<path d="M53.5559 74.5913C53.3975 74.5898 53.2928 74.6945 53.1259 74.6945C52.8057 74.6955 52.4677 74.6978 52.1117 74.7016C51.954 74.703 51.8239 74.7674 51.6719 74.7716C51.2852 74.782 50.8802 74.7848 50.4569 74.7801C50.2192 74.778 50.012 74.7002 49.7822 74.6987C49.479 74.6969 49.177 74.6957 48.8762 74.6952C48.7496 74.6945 48.6803 74.6089 48.5608 74.6026C48.3406 74.5917 48.1235 74.587 47.9095 74.5884C47.797 74.5891 47.6966 74.5439 47.5884 74.529C46.5408 74.3852 45.7067 74.2412 45.0863 74.0969C40.793 73.0983 36.9352 71.2181 33.5127 68.4562C33.3133 68.2949 33.1294 68.116 32.9236 67.9632C32.8454 67.9053 32.7676 67.839 32.6902 67.7645C31.5299 66.6415 30.8187 65.9284 30.5566 65.6252C27.3982 61.9717 25.1853 57.4894 24.3324 52.7461C24.2786 52.4472 24.1926 51.8308 24.0743 50.8968C24.0545 50.7417 24.0443 50.591 24.0438 50.4449C24.0431 50.2376 24.0622 49.9958 24.0078 49.7992C23.9837 49.7122 23.9618 49.6224 23.9604 49.5304C23.95 48.4253 23.9536 47.3444 23.971 46.2879C23.9738 46.1231 24.0297 45.9682 24.0332 45.8041C24.0389 45.5149 24.0431 45.2327 24.0778 44.9463C24.1846 44.0637 24.2659 43.2362 24.4583 42.3529C24.5936 41.7329 24.7341 41.0872 24.8798 40.4159C24.9283 40.1919 25.0002 39.947 25.0955 39.6811C25.3029 39.1002 25.4863 38.5597 25.6457 38.0594C25.7461 37.7435 25.8687 37.4364 26.0134 37.1379C26.297 36.5524 26.5346 35.9406 26.8501 35.3649C27.2395 34.6535 27.6266 34.0062 28.0113 33.4229C28.5856 32.5524 29.1627 31.6655 29.8147 30.8331C30.0264 30.563 30.4946 30.0344 31.2192 29.2475C32.6308 27.7143 34.2737 26.3805 36.0523 25.2065C38.628 23.5069 41.4177 22.2923 44.4215 21.563C45.2607 21.3598 46.141 21.2049 47.0622 21.0983C47.2291 21.0785 47.3776 21.0085 47.5382 21.0142C47.7452 21.0217 47.9521 21.0106 48.1591 20.9809C48.3939 20.9475 48.6106 20.93 48.809 20.9286C49.6219 20.9234 50.3956 20.9229 51.1301 20.9272C51.3442 20.9281 51.558 20.9451 51.7716 20.9781C52.0644 21.0234 52.3607 21.0057 52.6584 21.0524C53.2044 21.1379 53.7511 21.1938 54.2758 21.2985C55.4809 21.5375 56.6747 21.8873 57.8571 22.348C58.6469 22.6558 59.3739 23.0085 60.0382 23.406C60.1023 23.4442 60.1591 23.4899 60.2086 23.5432C60.2219 23.5574 60.2319 23.5742 60.2382 23.5926C60.2445 23.6109 60.2469 23.6304 60.2452 23.6497C60.2434 23.669 60.2376 23.6877 60.2282 23.7046C60.2187 23.7214 60.2058 23.7361 60.1902 23.7475C60.0931 23.8187 59.9719 23.8336 59.8267 23.7921C58.7867 23.4932 57.7082 23.2952 56.5912 23.198C56.29 23.1716 56.0434 23.1563 55.8515 23.1521C55.2739 23.1384 54.6719 23.1339 54.0453 23.1386C53.8798 23.1401 53.7383 23.2101 53.5757 23.2136C53.215 23.2207 52.8352 23.1811 52.4795 23.2787C52.2178 23.3501 51.925 23.2907 51.6761 23.3855C51.5545 23.4314 51.4371 23.4166 51.309 23.4385C49.7763 23.6964 48.1997 24.1643 46.5792 24.8423C44.8329 25.5736 43.2192 26.5366 41.7383 27.7313C41.5125 27.9133 41.2867 28.1052 41.0608 28.307C40.835 28.5092 40.6155 28.7063 40.4024 28.8982C39.8838 29.3654 39.389 29.8786 38.918 30.4378C38.8133 30.5623 38.6825 30.6662 38.5863 30.7928C38.3741 31.0707 38.145 31.3225 37.9363 31.6004C37.1429 32.6551 36.5118 33.6026 36.0431 34.4427C35.7185 35.0255 35.2836 35.8847 34.983 36.5941C34.3079 38.1891 33.8616 39.8534 33.6443 41.587C33.6344 41.6667 33.6212 41.7438 33.6047 41.8183C33.5502 42.0665 33.5757 42.3607 33.5707 42.6203C33.5698 42.6905 33.5512 42.8232 33.5148 43.0184C33.487 43.1669 33.4729 43.3194 33.4724 43.476C33.4705 44.1672 33.4724 44.8162 33.4781 45.4229C33.4802 45.6733 33.5743 45.9053 33.5693 46.1577C33.5651 46.369 33.5738 46.5691 33.5955 46.7582C34.0856 51.0177 35.9385 55.0007 38.773 58.2362C39.6259 59.2098 40.4993 60.0486 41.3932 60.7525C43.4017 62.3348 45.4983 63.4939 47.6832 64.2299C49.0552 64.6917 50.4434 65.0898 51.8706 65.3055C52.823 65.4489 53.5622 65.5311 54.0884 65.5524C54.2463 65.559 54.3996 65.5719 54.5481 65.5913C55.0898 65.662 55.6231 65.657 56.1803 65.6507C56.4057 65.6478 56.611 65.6339 56.7963 65.6089C56.9976 65.5816 57.2013 65.5634 57.4073 65.5545C58.6431 65.5012 59.8868 65.3388 61.1386 65.0672C65.0679 64.2143 68.8197 62.4031 71.8854 59.7978C72.199 59.5314 72.5417 59.2025 72.9137 58.8112C73.4908 58.2039 74.0924 57.5234 74.7185 56.7695C74.9764 56.4583 75.2306 56.1226 75.4809 55.7624C75.582 55.6174 75.8027 55.3869 75.9873 55.5538C76.1832 55.7313 76.1994 55.8451 76.1231 56.0955C75.6761 57.5594 75.1756 58.9173 74.6216 60.169C74.3411 60.8041 73.98 61.4779 73.5382 62.1903C73.0488 62.9805 72.4444 63.848 71.7249 64.7928C71.5955 64.9632 71.4406 65.104 71.3289 65.2829C71.1754 65.5276 70.9328 65.6952 70.7673 65.942C70.7216 66.0099 70.669 66.0748 70.6096 66.1365C69.9807 66.79 69.2633 67.5036 68.4576 68.2773C68.4071 68.3258 68.3543 68.3732 68.2991 68.4194C66.8517 69.6363 65.3505 70.6714 63.7956 71.5248C63.3934 71.7459 62.9752 71.9578 62.541 72.1606C60.3571 73.1808 58.0743 73.9055 55.6924 74.3345C55.4458 74.3793 55.2011 74.4225 54.9583 74.464C54.7758 74.4958 54.611 74.4873 54.4321 74.5C54.3345 74.5064 54.273 74.5863 54.1853 74.5884C53.9769 74.5927 53.7671 74.5936 53.5559 74.5913Z" fill="white"/>
<path d="M74.0219 28.2488C73.9851 28.41 74.0183 28.567 73.9497 28.7219C73.855 28.9369 73.7793 29.1696 73.681 29.3683C73.0379 30.6705 72 31.5387 70.5671 31.973C70.3517 32.0385 70.1339 32.0956 69.9137 32.1441C69.8854 32.1505 69.8601 32.1664 69.8422 32.1892C69.8243 32.212 69.8148 32.2403 69.8154 32.2693C69.8286 33.0515 69.8291 33.8466 69.8168 34.6547C69.8111 35.0331 69.8628 35.4228 69.9901 35.7672C70.2043 36.3471 70.7737 36.8435 71.2843 37.1625C71.6713 37.4039 72.0122 37.6342 72.3069 37.8535C73.007 38.3754 73.5664 39.0847 73.8691 39.9609C73.9264 40.1278 73.9229 40.299 73.9307 40.4701C73.9319 40.5002 73.9271 40.5301 73.9165 40.5582C73.9059 40.5863 73.8897 40.612 73.869 40.6337C73.8482 40.6553 73.8233 40.6726 73.7957 40.6843C73.7682 40.6961 73.7385 40.7021 73.7086 40.7021C70.7345 40.7012 67.8439 40.7005 65.0367 40.7C64.9226 40.7 64.81 40.6658 64.6987 40.5974C64.6779 40.5847 64.6666 40.5663 64.6647 40.5423C64.5905 39.5423 65.42 38.4298 66.186 37.8612C66.4646 37.6543 66.7468 37.46 67.0325 37.2785C67.5162 36.9708 67.9766 36.5713 68.3118 36.1378C68.483 35.9164 68.6563 35.5564 68.6704 35.2566C68.6765 35.1236 68.6914 34.994 68.715 34.8676C68.7602 34.6264 68.7439 34.3718 68.7348 34.1236C68.7112 33.4824 68.7194 32.8766 68.7595 32.3061C68.7621 32.2708 68.7524 32.2358 68.732 32.2069C68.7116 32.178 68.6818 32.1571 68.6478 32.1477C68.1711 32.0182 67.698 31.8888 67.2496 31.6731C66.0483 31.0965 65.2053 30.1936 64.7206 28.9645C64.2701 27.8216 64.3076 26.4645 64.6372 25.2997C64.7069 25.0536 64.8107 24.8186 64.9483 24.5946C65.8748 23.0897 67.4851 22.1349 69.2751 22.2629C69.3029 22.2648 69.3201 22.2792 69.3267 22.3061C69.3309 22.323 69.3293 22.3391 69.3217 22.3542C69.3123 22.3735 69.2979 22.3874 69.2786 22.3959C68.5155 22.724 67.6711 23.403 67.2899 24.1003C67.1393 24.3754 66.9851 24.7615 66.9745 25.089C66.9674 25.3054 66.9066 25.4942 66.9483 25.7155C66.9705 25.832 66.9823 25.9574 66.9837 26.0918C66.9846 26.2224 67.0044 26.3433 67.0431 26.4546C67.384 27.4419 68.0455 28.0489 69.0275 28.2757C69.4104 28.3643 69.7998 28.3612 70.1959 28.2665C71.0898 28.0529 71.7579 27.5067 72.2001 26.6278C72.7178 25.5981 72.6068 24.4617 72.2121 23.4037C72.1768 23.3075 72.2034 23.2851 72.292 23.3365C72.4811 23.4454 72.6489 23.5807 72.7956 23.7424C73.6079 24.6368 74.0443 25.6385 74.1046 26.7474C74.1155 26.9492 74.1183 27.3702 74.1131 28.0105C74.1126 28.0859 74.0928 28.1451 74.0537 28.188C74.0377 28.2054 74.0271 28.2257 74.0219 28.2488Z" fill="white"/>
<path d="M61.4759 60.5073C61.488 60.5276 61.5052 60.5443 61.5256 60.556C61.5461 60.5676 61.5691 60.5738 61.5926 60.5738H64.6825C64.694 60.5738 64.705 60.5782 64.7132 60.5862C64.7214 60.5941 64.7261 60.6049 64.7263 60.6162L64.7447 61.8941C64.7451 61.9313 64.7336 61.9677 64.712 61.9979C64.6904 62.0282 64.6598 62.0508 64.6245 62.0625C64.3656 62.1478 64.1089 62.2353 63.8543 62.3248C62.5002 62.801 61.1506 63.1582 59.8055 63.3963C59.541 63.4429 59.273 63.4656 59.0092 63.525C58.8055 63.5702 58.6089 63.5589 58.4024 63.5688C58.3769 63.5702 58.3536 63.5778 58.3324 63.5915C58.2588 63.6381 58.1834 63.6615 58.1061 63.6615C57.8779 63.661 57.6405 63.661 57.3939 63.6615C57.2107 63.6622 57.0658 63.7513 56.8833 63.7499C56.1714 63.7447 55.4684 63.7445 54.7744 63.7492C54.6933 63.7496 54.6181 63.7376 54.5488 63.7131C54.4455 63.6773 54.3684 63.6596 54.3175 63.6601C53.9943 63.6643 53.6711 63.6657 53.3458 63.6198C52.4957 63.5009 51.7852 63.3812 51.2143 63.2605C49.1945 62.8343 47.2617 62.1271 45.4158 61.1388C44.5926 60.698 43.7756 60.1695 42.9646 59.5533C42.8284 59.45 42.6973 59.3376 42.5714 59.2159C42.5071 59.1544 42.442 59.1629 42.3748 59.0978C41.9198 58.6542 41.4818 58.2171 41.0608 57.7867C40.9627 57.6867 40.9187 57.5639 40.9286 57.4182C40.9304 57.3946 40.9257 57.372 40.9144 57.3503C40.7694 57.0745 40.9356 56.8751 40.937 56.5985C40.937 56.5892 40.9408 56.5802 40.9476 56.5735C40.9544 56.5669 40.9635 56.5632 40.9731 56.5632L41.6457 56.5639C41.6707 56.5639 41.6898 56.553 41.703 56.5313C41.7411 56.4684 41.7291 56.3722 41.6662 56.3263C41.6285 56.2989 41.5957 56.2645 41.5679 56.223C41.4458 56.0391 41.3227 55.8538 41.1987 55.6671C40.5717 54.7195 40.1386 53.6539 39.8996 52.4705C39.8237 52.0948 39.78 51.7544 39.7687 51.4493C39.7532 51.0313 39.6888 50.6431 39.7199 50.2308C39.744 49.9168 39.7664 49.6226 39.7871 49.3482C39.8173 48.9441 39.9095 48.4632 40.0636 47.9055C40.2008 47.409 40.3432 46.9536 40.4908 46.5391C40.7433 45.8319 41.1796 45.17 41.6365 44.5349C42.3611 43.5273 43.1905 42.6848 44.1245 42.0073C45.2631 41.1806 46.5226 40.5236 47.7772 39.9062C48.4689 39.5662 49.0257 39.2242 49.4477 38.88C49.9267 38.4896 50.2961 38.1264 50.5559 37.7902C50.702 37.6011 50.7857 37.3635 50.8069 37.0773C50.8291 36.7779 50.8409 36.6235 50.8423 36.6141C50.9264 36.0363 50.8967 35.4217 50.8663 34.827C50.8611 34.7237 50.864 34.62 50.8748 34.5158C50.8932 34.3298 50.9696 34.0964 50.7489 33.9946C49.6421 33.484 48.93 32.3659 49.0417 31.1297C49.128 30.1792 49.5799 29.4783 50.3974 29.0271C50.5026 28.9696 50.6044 28.9241 50.703 28.8906C50.8128 28.8538 50.9238 28.8135 51.0361 28.7697C51.1718 28.7166 51.3154 28.7244 51.4597 28.7195C51.5577 28.7162 51.5709 28.7482 51.4993 28.8157C51.3677 28.9401 51.2291 29.0695 51.0834 29.2039C50.6388 29.6141 50.4314 30.1176 50.4611 30.7145C50.5127 31.7449 51.3734 32.433 52.3734 32.4677C53.0603 32.4913 53.6586 32.2211 54.1683 31.6572C54.2857 31.5278 54.3557 31.3729 54.4738 31.2449C54.4936 31.2237 54.5061 31.1987 54.5113 31.17C54.5193 31.1261 54.5394 31.0889 54.5714 31.0582C54.5898 31.0408 54.5988 31.0196 54.5983 30.9946C54.5974 30.8206 54.6362 30.6608 54.715 30.5151C54.7414 30.4656 54.7562 30.4689 54.7595 30.525C54.7694 30.6983 54.8465 30.8227 54.8621 30.9818C54.8838 31.2115 54.8703 31.4686 54.8218 31.7534C54.7336 32.2716 54.5594 32.7016 54.2991 33.0434C53.8776 33.5969 53.3552 33.9498 52.732 34.1021C52.6641 34.119 52.6153 34.1678 52.546 34.1671C52.4055 34.1662 52.2635 34.1686 52.1202 34.1742C52.0896 34.1754 52.0605 34.188 52.0388 34.2095C52.0171 34.2309 52.0042 34.2598 52.0028 34.2902C51.9906 34.5519 51.992 34.8149 52.0071 35.0794C52.0467 35.7697 52.0283 36.479 52.0396 37.1353C52.042 37.2829 52.0811 37.4453 52.157 37.6226C52.3472 38.0681 52.6839 38.4613 53.0651 38.7817C53.2984 38.9769 53.553 39.1742 53.8062 39.3383C54.4771 39.7735 55.1756 40.1688 55.9017 40.5243C56.5933 40.863 57.2631 41.2626 57.8819 41.682C58.4783 42.0865 59.1143 42.6372 59.7899 43.334C60.7221 44.2958 61.43 45.4182 61.9675 46.6289C62.3034 47.3864 62.4675 48.2032 62.6181 49.0299C62.6553 49.235 62.6754 49.4323 62.6782 49.6219C62.686 50.1007 62.7447 50.5801 62.6966 51.0724C62.673 51.3156 62.6678 51.5717 62.681 51.8404C62.6824 51.8736 62.6738 51.9066 62.6563 51.9352C62.6101 52.0097 62.5875 52.0948 62.5884 52.1905C62.5893 52.281 62.5787 52.3734 62.5566 52.4677C62.2841 53.6143 61.8505 54.6622 61.256 55.6113C61.0976 55.8649 60.9194 56.1134 60.7213 56.3567C60.7063 56.3754 60.6968 56.3979 60.694 56.4218C60.6912 56.4456 60.6952 56.4698 60.7056 56.4915C60.7159 56.5131 60.7322 56.5314 60.7525 56.5442C60.7728 56.5571 60.7963 56.5639 60.8204 56.5639L61.3515 56.5632C61.3788 56.5632 61.3939 56.5768 61.3967 56.6042C61.4114 56.7513 61.4196 56.8956 61.4215 57.037C61.4347 58.1634 61.4323 59.2303 61.4144 60.2379C61.4125 60.3449 61.433 60.4347 61.4759 60.5073ZM48.0785 55.7152C48.418 55.8652 48.7468 55.8472 49.0651 55.6615C49.6846 55.2994 50.3027 54.8602 50.8628 54.5052C51.8878 53.856 52.8944 53.2145 53.8826 52.5809C54.3932 52.2534 55.0247 51.8779 55.5962 51.5115C55.8145 51.372 55.9637 51.2456 56.0438 51.1325C56.401 50.6297 56.2355 49.9818 55.7411 49.6565C54.3083 48.7145 52.859 47.7617 51.3932 46.798C50.6926 46.3369 49.9521 45.8359 49.1718 45.2951C48.587 44.8892 47.896 45.1162 47.6513 45.7732C47.6396 45.805 47.6336 45.8385 47.6337 45.8722C47.6341 48.6653 47.6329 51.4474 47.6301 54.2188C47.6301 54.6438 47.5658 55.4882 48.0785 55.7152Z" fill="#FF0000"/>
<path d="M66.8833 60.8711C66.8569 60.9169 66.8164 60.9315 66.7617 60.915C66.7515 60.9119 66.7425 60.9057 66.7362 60.8972C66.7298 60.8886 66.7264 60.8783 66.7263 60.8676C66.7278 57.6163 66.7169 54.365 66.6938 51.1137C66.6905 50.6639 66.691 50.1929 66.6952 49.7007C66.7127 47.5659 66.7214 45.4084 66.7214 43.2283C66.7214 43.0586 66.7193 42.8096 66.8112 42.6646C66.8249 42.643 66.8442 42.6283 66.8692 42.6208C67.0833 42.5557 67.2938 42.5281 67.5007 42.538C68.5305 42.5871 69.5837 42.5901 70.6606 42.5472C70.9413 42.5366 71.2518 42.4737 71.5177 42.5147C71.7228 42.5463 71.8973 42.6472 72.0411 42.8174C72.0547 42.8329 72.0623 42.8527 72.0623 42.8733L72.0686 56.6851C72.0686 56.7106 72.0616 56.7339 72.0474 56.7552C71.9046 56.9763 71.7832 57.142 71.6832 57.2523C71.4263 57.5357 71.1123 57.8454 70.7412 58.1816C70.6794 58.2377 70.6111 58.2882 70.5361 58.333C70.4343 58.3938 70.3621 58.4822 70.2688 58.5564C69.5106 59.15 68.6214 59.7827 67.6012 60.4546C67.546 60.4909 67.4897 60.5215 67.4321 60.5465C67.409 60.5564 67.3892 60.5708 67.3727 60.5897C67.3468 60.6189 67.3143 60.6349 67.2751 60.6378C67.2506 60.6392 67.2313 60.6498 67.2172 60.6696C67.1969 60.6979 67.17 60.7165 67.1365 60.7255C67.1054 60.7339 67.083 60.7528 67.0693 60.782C67.0505 60.8216 67.0182 60.8374 66.9725 60.8294C66.9333 60.8228 66.9036 60.8367 66.8833 60.8711Z" fill="white"/>
<path d="M26.9965 66.2901C27.0851 66.0383 27.2028 65.8176 27.3494 65.6281C27.5526 65.3655 27.7608 65.2978 27.9739 65.4251C28.0993 65.4996 28.2332 65.6293 28.3756 65.8141C28.9621 66.5746 29.6811 67.3931 30.5326 68.2695C30.9293 68.6776 31.3572 69.0461 31.766 69.4343C31.9263 69.5871 32.0887 69.7332 32.2532 69.8728C34.9387 72.1562 37.9479 73.891 41.2808 75.0772C41.4345 75.1319 41.5759 75.1903 41.7051 75.2526C41.7942 75.2955 41.828 75.3735 41.8063 75.4867C41.802 75.5102 41.7905 75.5293 41.7716 75.5439L41.6379 75.65C41.6172 75.6665 41.5936 75.6748 41.5672 75.6748C38.6667 75.6757 35.7836 75.6753 32.918 75.6734C32.8176 75.6734 32.7139 75.659 32.6068 75.6302C32.5106 75.6048 32.3989 75.5826 32.2716 75.5637C31.3173 75.4247 30.4241 75.0777 29.592 74.5227C29.256 74.2985 28.9138 74.056 28.6273 73.7681C28.4145 73.5538 28.1917 73.3509 28.0007 73.1132C26.6337 71.4075 26.1563 69.1387 26.766 67.0114C26.8338 66.7733 26.9107 66.5329 26.9965 66.2901Z" fill="white"/>
<path d="M60.1669 75.6265C60.121 75.5629 60.0502 75.5112 59.9929 75.4554C59.9698 75.4332 59.9637 75.4068 59.9746 75.3762C60.0076 75.2828 60.0762 75.2312 60.1804 75.2213C60.2092 75.2185 60.2366 75.2061 60.2581 75.1859C60.3199 75.1279 60.3937 75.1018 60.4795 75.1074C60.4914 75.1083 60.5034 75.1066 60.5145 75.1023C60.5257 75.098 60.5357 75.0913 60.5439 75.0827C60.6111 75.0119 60.6853 75.0247 60.7482 75.0013C61.6535 74.6661 62.4177 74.3575 63.041 74.0756C64.7289 73.3109 66.3664 72.3354 67.9533 71.1491C68.442 70.7835 68.8876 70.4002 69.3508 70.0155C69.546 69.8533 69.7308 69.6909 69.9053 69.5282C70.9661 68.5391 71.9562 67.4087 72.8755 66.1371C73.0092 65.9525 73.1188 65.7439 73.2765 65.5798C73.6174 65.2255 73.9399 65.6555 74.0573 65.9518C74.31 66.5874 74.4564 67.2618 74.4965 67.9752C74.5087 68.193 74.5318 68.3953 74.5658 68.582C74.6471 69.0275 74.517 69.4561 74.4894 69.9002C74.4833 69.9987 74.4663 70.0963 74.4385 70.193C74.4024 70.3203 74.4067 70.4483 74.3706 70.5763C73.8421 72.4382 72.7525 73.8554 71.1019 74.8281C70.5554 75.1496 69.9413 75.3795 69.2596 75.5176C69.1082 75.5482 68.9656 75.5643 68.8317 75.5657C68.7167 75.5671 68.6092 75.5874 68.5092 75.6265C68.4234 75.6595 68.3334 75.676 68.2391 75.676C65.595 75.6732 62.9366 75.6732 60.2638 75.676C60.2228 75.676 60.1905 75.6595 60.1669 75.6265Z" fill="white"/>
</svg>
