<svg width="27" height="27" viewBox="0 0 27 27" fill="none" xmlns="http://www.w3.org/2000/svg">
<g clip-path="url(#clip0_984_202)">
<path d="M8.08333 0.5H4.83333C3.68406 0.5 2.58186 0.956546 1.7692 1.7692C0.956546 2.58186 0.5 3.68406 0.5 4.83333L0.5 8.08333C0.5 9.23261 0.956546 10.3348 1.7692 11.1475C2.58186 11.9601 3.68406 12.4167 4.83333 12.4167H8.08333C9.23261 12.4167 10.3348 11.9601 11.1475 11.1475C11.9601 10.3348 12.4167 9.23261 12.4167 8.08333V4.83333C12.4167 3.68406 11.9601 2.58186 11.1475 1.7692C10.3348 0.956546 9.23261 0.5 8.08333 0.5V0.5ZM10.25 8.08333C10.25 8.65797 10.0217 9.20907 9.6154 9.6154C9.20907 10.0217 8.65797 10.25 8.08333 10.25H4.83333C4.2587 10.25 3.7076 10.0217 3.30127 9.6154C2.89494 9.20907 2.66667 8.65797 2.66667 8.08333V4.83333C2.66667 4.2587 2.89494 3.7076 3.30127 3.30127C3.7076 2.89494 4.2587 2.66667 4.83333 2.66667H8.08333C8.65797 2.66667 9.20907 2.89494 9.6154 3.30127C10.0217 3.7076 10.25 4.2587 10.25 4.83333V8.08333Z" fill="#AAAACB"/>
<path d="M22.1666 0.5H18.9166C17.7674 0.5 16.6652 0.956546 15.8525 1.7692C15.0399 2.58186 14.5833 3.68406 14.5833 4.83333V8.08333C14.5833 9.2326 15.0399 10.3348 15.8525 11.1475C16.6652 11.9601 17.7674 12.4167 18.9166 12.4167H22.1666C23.3159 12.4167 24.4181 11.9601 25.2308 11.1475C26.0434 10.3348 26.5 9.2326 26.5 8.08333V4.83333C26.5 3.68406 26.0434 2.58186 25.2308 1.7692C24.4181 0.956546 23.3159 0.5 22.1666 0.5V0.5ZM24.3333 8.08333C24.3333 8.65797 24.105 9.20907 23.6987 9.6154C23.2924 10.0217 22.7413 10.25 22.1666 10.25H18.9166C18.342 10.25 17.7909 10.0217 17.3846 9.6154C16.9783 9.20907 16.75 8.65797 16.75 8.08333V4.83333C16.75 4.2587 16.9783 3.7076 17.3846 3.30127C17.7909 2.89494 18.342 2.66667 18.9166 2.66667H22.1666C22.7413 2.66667 23.2924 2.89494 23.6987 3.30127C24.105 3.7076 24.3333 4.2587 24.3333 4.83333V8.08333Z" fill="#AAAACB"/>
<path d="M8.08333 14.5835H4.83333C3.68406 14.5835 2.58186 15.04 1.7692 15.8527C0.956546 16.6654 0.5 17.7676 0.5 18.9168L0.5 22.1668C0.5 23.3161 0.956546 24.4183 1.7692 25.231C2.58186 26.0436 3.68406 26.5002 4.83333 26.5002H8.08333C9.2326 26.5002 10.3348 26.0436 11.1475 25.231C11.9601 24.4183 12.4167 23.3161 12.4167 22.1668V18.9168C12.4167 17.7676 11.9601 16.6654 11.1475 15.8527C10.3348 15.04 9.2326 14.5835 8.08333 14.5835ZM10.25 22.1668C10.25 22.7415 10.0217 23.2926 9.6154 23.6989C9.20907 24.1052 8.65797 24.3335 8.08333 24.3335H4.83333C4.2587 24.3335 3.7076 24.1052 3.30127 23.6989C2.89494 23.2926 2.66667 22.7415 2.66667 22.1668V18.9168C2.66667 18.3422 2.89494 17.7911 3.30127 17.3848C3.7076 16.9784 4.2587 16.7502 4.83333 16.7502H8.08333C8.65797 16.7502 9.20907 16.9784 9.6154 17.3848C10.0217 17.7911 10.25 18.3422 10.25 18.9168V22.1668Z" fill="#AAAACB"/>
<path d="M22.1666 14.5835H18.9166C17.7674 14.5835 16.6652 15.04 15.8525 15.8527C15.0399 16.6654 14.5833 17.7676 14.5833 18.9168V22.1668C14.5833 23.3161 15.0399 24.4183 15.8525 25.231C16.6652 26.0436 17.7674 26.5002 18.9166 26.5002H22.1666C23.3159 26.5002 24.4181 26.0436 25.2308 25.231C26.0434 24.4183 26.5 23.3161 26.5 22.1668V18.9168C26.5 17.7676 26.0434 16.6654 25.2308 15.8527C24.4181 15.04 23.3159 14.5835 22.1666 14.5835ZM24.3333 22.1668C24.3333 22.7415 24.105 23.2926 23.6987 23.6989C23.2924 24.1052 22.7413 24.3335 22.1666 24.3335H18.9166C18.342 24.3335 17.7909 24.1052 17.3846 23.6989C16.9783 23.2926 16.75 22.7415 16.75 22.1668V18.9168C16.75 18.3422 16.9783 17.7911 17.3846 17.3848C17.7909 16.9784 18.342 16.7502 18.9166 16.7502H22.1666C22.7413 16.7502 23.2924 16.9784 23.6987 17.3848C24.105 17.7911 24.3333 18.3422 24.3333 18.9168V22.1668Z" fill="#AAAACB"/>
</g>
<defs>
<clipPath id="clip0_984_202">
<rect width="26" height="26" fill="white" transform="translate(0.5 0.5)"/>
</clipPath>
</defs>
</svg>
