<svg width="125" height="105" viewBox="0 0 125 105" fill="none" xmlns="http://www.w3.org/2000/svg">
<path d="M70.303 103.513C97.7497 103.513 120.001 81.2616 120.001 53.717C120.001 26.1725 97.6516 3.92114 70.303 3.92114C42.8564 3.92114 20.605 26.1725 20.605 53.717C20.605 81.2616 42.8564 103.513 70.303 103.513Z" fill="#F1F3F9" stroke="#D6DCE8" stroke-width="1.66442" stroke-miterlimit="10"/>
<path d="M116.374 21.1727C118.594 21.1727 120.393 19.3733 120.393 17.1537C120.393 14.9341 118.594 13.1348 116.374 13.1348C114.154 13.1348 112.355 14.9341 112.355 17.1537C112.355 19.3733 114.154 21.1727 116.374 21.1727Z" fill="#F1F3F9"/>
<path d="M122.255 5.48931C123.771 5.48931 125 4.26049 125 2.74466C125 1.22882 123.771 0 122.255 0C120.739 0 119.511 1.22882 119.511 2.74466C119.511 4.26049 120.739 5.48931 122.255 5.48931Z" fill="#F1F3F9"/>
<path d="M22.8593 21.0748C24.3751 21.0748 25.604 19.8459 25.604 18.3301C25.604 16.8143 24.3751 15.5854 22.8593 15.5854C21.3435 15.5854 20.1146 16.8143 20.1146 18.3301C20.1146 19.8459 21.3435 21.0748 22.8593 21.0748Z" fill="#F1F3F9"/>
<path d="M6.09743 74.0079C8.91255 74.0079 11.1947 71.7258 11.1947 68.9107C11.1947 66.0956 8.91255 63.8135 6.09743 63.8135C3.28231 63.8135 1.0002 66.0956 1.0002 68.9107C1.0002 71.7258 3.28231 74.0079 6.09743 74.0079Z" fill="#F1F3F9"/>
<path d="M106.846 87.4818C97.7651 97.344 84.7539 103.513 70.3024 103.513C58.7689 103.513 48.1528 99.5837 39.7197 92.9838V11.7131C39.7197 9.02476 41.8844 6.83105 44.5849 6.83105H92.8509L106.846 20.8751V87.4818Z" fill="white" stroke="#D6DCE8" stroke-width="1.66442" stroke-miterlimit="10"/>
<path d="M59.7479 86.7049H52.7192C52.457 86.7049 52.2471 86.0254 52.2471 85.21C52.2471 84.3946 52.457 83.7151 52.7192 83.7151H59.7479C60.0102 83.7151 60.22 84.3946 60.22 85.21C60.22 86.1613 60.0102 86.7049 59.7479 86.7049Z" fill="#D5DDEA"/>
<path d="M75.2149 23.919H53.1981C52.6861 23.919 52.2472 23.2291 52.2472 22.4241C52.2472 21.6192 52.6861 20.9292 53.1981 20.9292H75.2149C75.7269 20.9292 76.1658 21.6192 76.1658 22.4241C76.1658 23.2291 75.7269 23.919 75.2149 23.919Z" fill="#D6DCE8"/>
<path d="M58.6298 30.8951H52.8905C52.5441 30.8951 52.2473 30.2051 52.2473 29.4002C52.2473 28.5952 52.5441 27.9053 52.8905 27.9053H58.5803C58.9267 27.9053 59.2235 28.5952 59.2235 29.4002C59.2235 30.2051 58.9267 30.8951 58.6298 30.8951Z" fill="#D6DCE8"/>
<path d="M93.3709 69.7622H66.0814H63.0737H53.9772C53.6104 69.7622 53.2436 70.3851 53.2436 71.2571C53.2436 72.0046 53.537 72.752 53.9772 72.752H63.0737H66.0814H93.3709C93.7377 72.752 94.1045 72.1291 94.1045 71.2571C94.0312 70.3851 93.7377 69.7622 93.3709 69.7622Z" fill="#D6DCE8"/>
<path d="M93.3697 61.7896H83.228H79.7739H53.9786C53.6112 61.7896 53.2437 62.4124 53.2437 63.2845C53.2437 64.0319 53.5377 64.7794 53.9786 64.7794H79.7739H83.228H93.3697C93.7372 64.7794 94.1046 64.1565 94.1046 63.2845C94.0312 62.4124 93.7372 61.7896 93.3697 61.7896Z" fill="#D6DCE8"/>
<path d="M94.4167 54.8132H91.7168H89.0169H53.9937C53.6187 54.8132 53.2437 55.4361 53.2437 56.3081C53.2437 57.0556 53.5437 57.803 53.9937 57.803H89.0169H92.0168H94.3417C94.7167 57.803 95.0916 57.1802 95.0916 56.3081C95.1666 55.5607 94.7917 54.8132 94.4167 54.8132Z" fill="#D6DCE8"/>
<path d="M94.3578 46.8408H85.6591H83.5031H53.9872C53.6154 46.8408 53.2437 47.4637 53.2437 48.3357C53.2437 49.0832 53.5411 49.8306 53.9872 49.8306H83.5031H85.6591H94.2834C94.8039 49.8306 95.1013 49.2078 95.1013 48.3357C95.1013 47.5883 94.8039 46.8408 94.3578 46.8408Z" fill="#D6DCE8"/>
<path d="M92.8509 7.41626V16.467C92.8509 19.2247 95.0865 21.4603 97.8442 21.4603H106.846" fill="#F1F3F9"/>
<path d="M92.8509 7.41626V16.467C92.8509 19.2247 95.0865 21.4603 97.8442 21.4603H106.846" stroke="#D6DCE8" stroke-width="1.66442" stroke-miterlimit="10"/>
<path d="M59.1708 35.3097V66.1866C59.1708 69.7999 56.2129 72.4277 52.9265 72.4277H52.1154C51.6558 72.4277 51.2832 72.8003 51.2832 73.2599V80.6397C51.2832 82.6105 48.9827 83.2675 47.6681 81.9536L39.7008 72.7164C39.5427 72.5331 39.3127 72.4277 39.0706 72.4277H7.24433C3.62919 72.4277 1 69.4714 1 66.1866V35.3097C1 31.6964 3.95784 29.0686 7.24433 29.0686H52.9265C56.2129 29.0686 59.1708 32.0249 59.1708 35.3097Z" fill="#D6DCE8" stroke="#AAB2C5" stroke-width="1.66442" stroke-miterlimit="10" stroke-linejoin="round"/>
<path d="M16.4464 51.4056V44.836C16.4464 43.8506 17.1037 43.1936 18.0896 43.1936H25.3199C26.3058 43.1936 26.9631 43.8506 26.9631 44.836V52.391C26.9631 54.3619 26.9631 56.0042 26.6345 57.3182C26.3124 58.6059 25.6746 59.2626 24.7211 60.216C24.6823 60.2547 24.64 60.2899 24.5936 60.3192C23.7724 60.8382 22.5265 61.1475 21.0297 61.4206C20.5238 61.5129 20.0615 61.1203 20.0615 60.6061V59.3539C20.0615 58.9397 20.369 58.596 20.7697 58.4914C22.6298 58.0055 23.6767 56.7068 23.6767 54.3619C23.6767 54.3619 23.6767 54.3619 23.6767 54.3619C23.6767 54.3619 23.3825 53.7049 23.0197 53.7049H18.6702C18.5059 53.7049 18.3452 53.6565 18.2088 53.565C17.2974 52.9531 16.4464 52.3211 16.4464 51.4056ZM32.5501 51.4056V44.836C32.5501 43.8506 33.2074 43.1936 34.1934 43.1936H41.4237C42.4096 43.1936 43.0669 43.8506 43.0669 44.836V52.391C43.0669 54.3619 43.0669 56.0042 42.7382 57.3182C42.4161 58.6059 41.7783 59.2626 40.8248 60.216C40.7861 60.2547 40.7437 60.2899 40.6974 60.3192C39.8761 60.8382 38.6303 61.1475 37.1334 61.4206C36.6275 61.5129 36.1653 61.1203 36.1653 60.6061V59.3539C36.1653 58.9397 36.4727 58.596 36.8734 58.4914C38.7336 58.0055 39.7804 56.7068 39.7804 54.3619C39.7804 54.3619 39.7804 54.3619 39.7804 54.3619C39.7804 54.3619 39.4863 53.7049 39.1235 53.7049H34.7739C34.6097 53.7049 34.4489 53.6565 34.3126 53.565C33.4012 52.9531 32.5501 52.3211 32.5501 51.4056Z" fill="white" stroke="#AAB2C5" stroke-width="1.66442" stroke-miterlimit="10" stroke-linejoin="round"/>
</svg>
