<svg width="20" height="20" viewBox="0 0 20 20" fill="none" xmlns="http://www.w3.org/2000/svg">
<path d="M8.56803 0.975098C8.17731 1.29469 7.91754 1.74662 7.83803 2.2451C7.8053 2.39887 7.73678 2.54277 7.63803 2.6651C7.54348 2.7922 7.42009 2.89502 7.27803 2.9651L6.48803 3.3451C5.85408 3.65532 5.29204 4.09473 4.83803 4.6351C3.43803 6.3051 3.43803 7.0551 3.43803 9.9051C3.43803 11.1951 2.06803 12.3651 1.70803 13.5251C1.48803 14.2151 1.36803 15.7751 3.18803 15.7751H16.768C17.0341 15.788 17.2991 15.7329 17.538 15.6151C17.7765 15.4963 17.9824 15.3213 18.138 15.1051C18.286 14.8871 18.378 14.6361 18.408 14.3751C18.4311 14.1083 18.3864 13.84 18.278 13.5951C17.918 12.5051 16.488 11.2051 16.488 9.9151V7.7851" stroke="#11112E" stroke-width="1.5" stroke-linecap="round" stroke-linejoin="round"/>
<path d="M13.228 15.7749C13.231 16.2019 13.153 16.6259 12.998 17.0249C12.8315 17.4205 12.5905 17.7803 12.288 18.0849C11.9835 18.3911 11.62 18.6324 11.2195 18.794C10.819 18.9555 10.3898 19.0341 9.95804 19.0249C9.52546 19.0276 9.09683 18.9425 8.69804 18.7749C7.89787 18.4412 7.26178 17.8051 6.92804 17.0049C6.77118 16.614 6.69302 16.196 6.69804 15.7749" stroke="#11112E" stroke-width="1.5" stroke-linecap="round" stroke-linejoin="round"/>
<path d="M13.228 5.9751C14.6087 5.9751 15.728 4.85581 15.728 3.4751C15.728 2.09439 14.6087 0.975098 13.228 0.975098C11.8473 0.975098 10.728 2.09439 10.728 3.4751C10.728 4.85581 11.8473 5.9751 13.228 5.9751Z" fill="#FF0000"/>
</svg>
