<svg width="150" height="158" viewBox="0 0 150 158" fill="none" xmlns="http://www.w3.org/2000/svg">
<g clip-path="url(#clip0_32_3568)">
<path fill-rule="evenodd" clip-rule="evenodd" d="M74.9996 143.532C108.866 143.532 136.32 116.078 136.32 82.2122C136.32 48.346 108.866 20.8921 74.9996 20.8921C41.1335 20.8921 13.6795 48.346 13.6795 82.2122C13.6795 116.078 41.1335 143.532 74.9996 143.532Z" stroke="#FF0000" stroke-width="0.41293" stroke-dasharray="2.48 2.48"/>
<path fill-rule="evenodd" clip-rule="evenodd" d="M74.9997 156.539C116.05 156.539 149.327 123.261 149.327 82.2116C149.327 41.1618 116.05 7.88428 74.9997 7.88428C33.9499 7.88428 0.672394 41.1618 0.672394 82.2116C0.672394 123.261 33.9499 156.539 74.9997 156.539Z" stroke="#FF0000" stroke-width="0.41293" stroke-dasharray="2.48 2.48"/>
<path d="M124.745 105.891C124.747 97.2375 118.164 90.0038 109.548 89.1937C100.932 88.3835 93.1156 94.263 91.5044 102.765L39.9729 101.367L40.5386 110.221C40.5386 110.221 33.1905 127.176 71.8098 131.693V148.83H116.456V120.337C121.586 117.333 124.74 111.836 124.745 105.891Z" fill="url(#paint0_linear_32_3568)"/>
<path d="M42.3081 110.592C42.3081 110.592 35.2718 126.829 72.2559 131.16V147.578H115.013V104.099L41.7589 102.113L42.3081 110.592Z" fill="#FFCBB4"/>
<path d="M63.6775 42.8369C61.3566 46.4992 56.5137 47.5997 52.8381 45.3L29.8812 30.1724C26.2189 27.8515 25.1184 23.0086 27.4181 19.333C29.7386 15.6757 34.5753 14.5758 38.2493 16.8698L61.2061 31.9975C64.8713 34.3157 65.9756 39.1591 63.6775 42.8369Z" fill="url(#paint1_linear_32_3568)"/>
<path d="M62.4051 42.0101C60.2478 45.4143 55.7463 46.4373 52.3296 44.2998L30.9832 30.2272C27.579 28.0699 26.556 23.5684 28.6935 20.1517C30.8508 16.7475 35.3523 15.7245 38.769 17.862L60.1113 31.9264C63.522 34.0827 64.5474 38.5907 62.4051 42.0101Z" fill="#FFCBB4"/>
<path d="M106.896 122.501C115.764 122.501 122.953 115.312 122.953 106.444C122.953 97.5766 115.764 90.3877 106.896 90.3877C98.0285 90.3877 90.8396 97.5766 90.8396 106.444C90.8396 115.312 98.0285 122.501 106.896 122.501Z" fill="#FFCBB4"/>
<path d="M104.006 0.540527H42.4962C41.0994 0.540527 39.967 1.67289 39.967 3.06972V118.166C39.967 119.562 41.0994 120.695 42.4962 120.695H104.006C105.403 120.695 106.535 119.562 106.535 118.166V3.06972C106.535 1.67289 105.403 0.540527 104.006 0.540527Z" fill="url(#paint2_linear_32_3568)"/>
<path d="M102.817 2.16504H43.681C42.1256 2.16504 40.8648 3.42589 40.8648 4.98122V116.258C40.8648 117.813 42.1256 119.074 43.681 119.074H102.817C104.372 119.074 105.633 117.813 105.633 116.258V4.98122C105.633 3.42589 104.372 2.16504 102.817 2.16504Z" fill="white"/>
<path d="M89.5207 5.09717C89.1335 7.65899 86.9355 9.55541 84.3446 9.563H61.9762C59.3861 9.5544 57.1892 7.65822 56.8022 5.09717H44.9511C44.2986 5.09717 43.6726 5.35545 43.211 5.81666C42.7494 6.27787 42.49 6.90364 42.49 7.55617V113.679C42.49 114.332 42.7483 114.958 43.2095 115.419C43.6707 115.881 44.2965 116.14 44.949 116.14H101.549C102.202 116.14 102.828 115.882 103.289 115.421C103.751 114.959 104.01 114.334 104.01 113.681V7.55823C104.01 6.90571 103.752 6.27972 103.291 5.81812C102.83 5.35652 102.204 5.09717 101.551 5.09717H89.5207Z" fill="#E9ECFF"/>
<path d="M80.1451 6.49512H66.537C66.309 6.49512 66.1241 6.67999 66.1241 6.90805V6.98444C66.1241 7.21249 66.309 7.39737 66.537 7.39737H80.1451C80.3732 7.39737 80.558 7.21249 80.558 6.98444V6.90805C80.558 6.67999 80.3732 6.49512 80.1451 6.49512Z" fill="#DBDBDB"/>
<path d="M83.6238 7.5284C83.9953 7.5284 84.2965 7.22724 84.2965 6.85575C84.2965 6.48426 83.9953 6.18311 83.6238 6.18311C83.2523 6.18311 82.9512 6.48426 82.9512 6.85575C82.9512 7.22724 83.2523 7.5284 83.6238 7.5284Z" fill="#DBDBDB"/>
<path d="M117.276 109.278C112.616 110.355 109.418 107.316 108.34 102.658L97.6327 62.8993C96.5673 58.2234 99.4773 53.5646 104.147 52.4708C108.823 51.4054 113.481 54.3154 114.575 58.9847L123.313 99.7698C124.391 104.43 121.934 108.2 117.276 109.278Z" fill="url(#paint3_linear_32_3568)"/>
<path d="M113.374 59.9578C112.465 56.026 108.541 53.575 104.61 54.4835C100.678 55.392 98.2269 59.3158 99.1353 63.2476L108.981 105.86C109.89 109.792 113.813 112.243 117.745 111.335C121.677 110.426 124.128 106.502 123.22 102.571L113.374 59.9578Z" fill="#FFCBB4"/>
<path d="M122.885 142.206H61.7716V156.452H122.885V142.206Z" fill="url(#paint4_linear_32_3568)"/>
<path d="M121.234 143.858H63.4235V155.007H121.234V143.858Z" fill="#4D8AF0"/>
<path d="M54.7662 85.4879C52.4735 89.1066 47.6886 90.1942 44.0569 87.9221L28.6608 77.9601C25.042 75.6675 23.9544 70.8825 26.2266 67.2508C28.5192 63.632 33.3042 62.5444 36.9359 64.8166L52.332 74.7785C55.9508 77.0712 57.0384 81.8562 54.7662 85.4879Z" fill="url(#paint5_linear_32_3568)"/>
<path d="M50.9012 106.574C48.5881 110.226 43.7596 111.324 40.0949 109.031L30.5582 102.077C26.9063 99.7643 25.8085 94.9358 28.1013 91.271C30.4144 87.6191 35.243 86.5213 38.9077 88.8141L48.4443 95.7699C52.095 98.0829 53.1927 102.91 50.9012 106.574Z" fill="url(#paint6_linear_32_3568)"/>
<g opacity="0.5">
<path d="M73.2495 79.1887C83.5051 79.1887 91.819 70.8749 91.819 60.6193C91.819 50.3636 83.5051 42.0498 73.2495 42.0498C62.9939 42.0498 54.6801 50.3636 54.6801 60.6193C54.6801 70.8749 62.9939 79.1887 73.2495 79.1887Z" fill="url(#paint7_linear_32_3568)"/>
</g>
<path d="M73.249 78.0961C82.9014 78.0961 90.7262 70.2713 90.7262 60.6189C90.7262 50.9664 82.9014 43.1416 73.249 43.1416C63.5965 43.1416 55.7717 50.9664 55.7717 60.6189C55.7717 70.2713 63.5965 78.0961 73.249 78.0961Z" fill="#FF0000"/>
<path d="M65.6633 58.2865L72.2165 64.2946L81.5012 50.6411L84.7798 53.3726L72.2165 69.7577L62.9317 59.3808L65.6633 58.2865Z" fill="white"/>
<path d="M50.131 106.056C47.9737 109.46 43.4722 110.483 40.0555 108.346L31.161 101.871C27.7568 99.7139 26.7338 95.2124 28.8713 91.7957C31.0286 88.3916 35.5301 87.3686 38.9468 89.506L47.8392 95.9932C51.2366 98.1493 52.2597 102.642 50.131 106.056Z" fill="#FFCBB4"/>
<path d="M53.9199 84.9414C51.7626 88.3456 47.2611 89.3685 43.8444 87.2311L29.3589 77.8576C25.9547 75.7002 24.9317 71.1988 27.0692 67.7821C29.2265 64.3779 33.728 63.3549 37.1446 65.4924L51.6302 74.8659C55.0344 77.0232 56.0574 81.5247 53.9199 84.9414Z" fill="#FFCBB4"/>
<path d="M58.7471 64.5014C56.4431 68.136 51.6365 69.2281 47.9882 66.9459L28.4773 54.2421C24.8426 51.9382 23.7505 47.1316 26.0327 43.4833C28.3367 39.8486 33.1432 38.7565 36.7916 41.0387L56.3025 53.7425C59.9372 56.0465 61.0293 60.853 58.7471 64.5014Z" fill="url(#paint8_linear_32_3568)"/>
<path d="M57.7106 63.84C55.5533 67.2442 51.0518 68.2671 47.6351 66.1297L29.3609 54.2311C25.9567 52.0738 24.9337 47.5723 27.0712 44.1556C29.2285 40.7514 33.73 39.7284 37.1467 41.8659L55.4188 53.7645C58.8237 55.9211 59.8477 60.4228 57.7106 63.84Z" fill="#FFCBB4"/>
</g>
<defs>
<linearGradient id="paint0_linear_32_3568" x1="82.3622" y1="148.84" x2="82.3622" y2="89.122" gradientUnits="userSpaceOnUse">
<stop stop-color="#808080" stop-opacity="0.25"/>
<stop offset="0.54" stop-color="#808080" stop-opacity="0.12"/>
<stop offset="1" stop-color="#808080" stop-opacity="0.1"/>
</linearGradient>
<linearGradient id="paint1_linear_32_3568" x1="45.5457" y1="46.5037" x2="45.5457" y2="15.6703" gradientUnits="userSpaceOnUse">
<stop stop-color="#808080" stop-opacity="0.25"/>
<stop offset="0.54" stop-color="#808080" stop-opacity="0.12"/>
<stop offset="1" stop-color="#808080" stop-opacity="0.1"/>
</linearGradient>
<linearGradient id="paint2_linear_32_3568" x1="73.2512" y1="120.693" x2="73.2512" y2="0.538465" gradientUnits="userSpaceOnUse">
<stop stop-color="#808080" stop-opacity="0.25"/>
<stop offset="0.54" stop-color="#808080" stop-opacity="0.12"/>
<stop offset="1" stop-color="#808080" stop-opacity="0.1"/>
</linearGradient>
<linearGradient id="paint3_linear_32_3568" x1="110.487" y1="109.492" x2="110.487" y2="52.2478" gradientUnits="userSpaceOnUse">
<stop stop-color="#808080" stop-opacity="0.25"/>
<stop offset="0.54" stop-color="#808080" stop-opacity="0.12"/>
<stop offset="1" stop-color="#808080" stop-opacity="0.1"/>
</linearGradient>
<linearGradient id="paint4_linear_32_3568" x1="92.3325" y1="156.448" x2="92.3325" y2="142.202" gradientUnits="userSpaceOnUse">
<stop stop-color="#808080" stop-opacity="0.25"/>
<stop offset="0.54" stop-color="#808080" stop-opacity="0.12"/>
<stop offset="1" stop-color="#808080" stop-opacity="0.1"/>
</linearGradient>
<linearGradient id="paint5_linear_32_3568" x1="40.4933" y1="89.1092" x2="40.4933" y2="63.6315" gradientUnits="userSpaceOnUse">
<stop stop-color="#808080" stop-opacity="0.25"/>
<stop offset="0.54" stop-color="#808080" stop-opacity="0.12"/>
<stop offset="1" stop-color="#808080" stop-opacity="0.1"/>
</linearGradient>
<linearGradient id="paint6_linear_32_3568" x1="39.5023" y1="110.229" x2="39.5023" y2="87.6146" gradientUnits="userSpaceOnUse">
<stop stop-color="#808080" stop-opacity="0.25"/>
<stop offset="0.54" stop-color="#808080" stop-opacity="0.12"/>
<stop offset="1" stop-color="#808080" stop-opacity="0.1"/>
</linearGradient>
<linearGradient id="paint7_linear_32_3568" x1="73.2495" y1="79.1887" x2="73.2495" y2="42.0477" gradientUnits="userSpaceOnUse">
<stop stop-color="#808080" stop-opacity="0.25"/>
<stop offset="0.54" stop-color="#808080" stop-opacity="0.12"/>
<stop offset="1" stop-color="#808080" stop-opacity="0.1"/>
</linearGradient>
<linearGradient id="paint8_linear_32_3568" x1="42.3889" y1="68.1455" x2="42.3889" y2="39.8536" gradientUnits="userSpaceOnUse">
<stop stop-color="#808080" stop-opacity="0.25"/>
<stop offset="0.54" stop-color="#808080" stop-opacity="0.12"/>
<stop offset="1" stop-color="#808080" stop-opacity="0.1"/>
</linearGradient>
<clipPath id="clip0_32_3568">
<rect width="150" height="156.726" fill="white" transform="translate(0 0.540039)"/>
</clipPath>
</defs>
</svg>
