<svg width="164" height="164" viewBox="0 0 164 164" fill="none" xmlns="http://www.w3.org/2000/svg">
<mask id="mask0_43_3762" style="mask-type:alpha" maskUnits="userSpaceOnUse" x="0" y="0" width="164" height="164">
<circle cx="81.7422" cy="81.7422" r="81.7422" fill="#C4C4C4"/>
</mask>
<g mask="url(#mask0_43_3762)">
<path opacity="0.1" d="M188.704 98.5193C189.097 95.839 189.32 93.1366 189.372 90.4282C189.777 68.3353 180.529 51.0322 167.753 33.8864C154.557 16.1768 136.321 -1.25992 114.706 -7.66779C109.603 -9.15682 104.239 -9.96347 98.9464 -9.35746C78.9642 -7.10731 59.5592 8.53107 35.327 13.3842C11.0947 18.2374 -10.1819 31.8051 -14.3801 58.1898C-16.1607 69.3618 -15.6127 80.2669 -13.4041 91.3222C-10.6667 104.91 -11.0305 119.861 -5.79039 133.109C-0.282568 147.029 11.5466 160.246 24.793 167.183C39.9042 175.098 56.8614 170.153 73.0349 170.697C85.795 171.118 98.2975 174.896 111.064 174.995C130.62 175.153 152.306 167.152 163.706 150.71C174.757 134.734 185.889 117.835 188.704 98.5193Z" fill="#3AD29F"/>
<path opacity="0.1" d="M170.582 28.3823C169.153 26.0808 167.58 23.8719 165.873 21.7689C151.931 4.62581 133.702 -2.62952 112.88 -7.48938C91.3722 -12.5086 66.1896 -14.0683 45.5395 -5.02067C40.6797 -2.86648 36.0611 -0.0229425 32.4076 3.85461C18.5906 18.4643 13.8513 42.9317 -1.53391 62.272C-16.9192 81.6124 -24.4244 105.705 -10.6117 128.574C-4.76521 138.259 2.6883 146.238 11.5076 153.261C22.3647 161.878 31.7311 173.536 44.2815 180.279C57.4694 187.362 75.0347 189.83 89.6316 186.586C106.283 182.885 116.051 168.168 128.76 158.151C138.782 150.241 150.772 145.062 160.591 136.902C175.636 124.408 187.044 104.305 185.149 84.387C183.287 65.0509 180.892 44.9566 170.582 28.3823Z" fill="#3AD29F"/>
<g opacity="0.5">
<path d="M-28.2998 115.132C-26.2728 114.364 -22.9464 110.961 -22.6861 110.685C-20.802 112.658 -18.7924 114.498 -16.6708 116.194C-15.4421 117.182 -14.1761 118.146 -12.8574 119.093C-13.5111 118.752 -14.0889 118.448 -14.1723 118.418C-16.5775 117.486 -21.7366 117.144 -23.5383 119.467C-23.8322 119.86 -24.0417 120.313 -24.153 120.796C-24.2643 121.279 -24.2748 121.781 -24.1839 122.268C-24.0929 122.756 -23.9026 123.218 -23.6255 123.625C-23.3484 124.031 -22.9909 124.372 -22.5766 124.625C-20.8704 125.762 -18.3925 125.4 -16.5984 124.713C-14.8042 124.027 -11.8776 121.182 -11.1185 120.417C-10.623 120.776 -10.1349 121.143 -9.63952 121.494C-7.25376 123.206 -4.86068 124.902 -2.56514 126.638C-1.75674 127.25 -0.985746 127.886 -0.207307 128.514C-0.785049 128.21 -1.27149 127.96 -1.34738 127.93C-3.75256 126.997 -8.91166 126.656 -10.7134 128.978C-10.9996 129.373 -11.2019 129.825 -11.3074 130.306C-11.4128 130.787 -11.419 131.285 -11.3255 131.769C-11.2319 132.252 -11.0408 132.71 -10.7645 133.113C-10.4883 133.515 -10.133 133.853 -9.72191 134.105C-8.01585 135.234 -5.53799 134.872 -3.74371 134.193C-1.94943 133.514 0.693954 130.931 1.59467 130.031C2.35855 130.698 3.12243 131.365 3.88664 132.055C4.36866 132.532 4.86512 132.961 5.32493 133.468L6.71128 134.945C7.5547 135.907 8.43628 136.899 9.23454 137.869C9.80224 138.539 10.3242 139.178 10.854 139.833C10.0908 139.213 8.46707 138.036 8.33007 137.952C6.04822 136.66 1.02883 135.506 -1.07893 137.529C-1.42 137.873 -1.68687 138.288 -1.86213 138.746C-2.03738 139.204 -2.11708 139.695 -2.09604 140.187C-2.07501 140.679 -1.95369 141.161 -1.74002 141.602C-1.52634 142.042 -1.22511 142.432 -0.855957 142.744C0.67245 144.125 3.1709 144.161 5.04461 143.769C7.11385 143.327 10.7667 140.613 11.2223 140.272C12.09 141.35 12.9348 142.413 13.711 143.423C15.8087 146.136 17.5551 148.549 18.9028 150.501L20.5802 149.559C19.1492 147.585 17.2887 145.103 15.0314 142.314C14.1483 141.213 13.1815 140.058 12.1842 138.88C13.1078 137.731 13.9631 136.526 14.7454 135.27C16.801 136.02 21.0016 135.814 21.5447 135.791C21.6998 137.191 21.8317 138.544 21.9401 139.836C22.2279 143.189 22.3893 146.13 22.4898 148.489L24.3094 147.459C24.1657 145.249 23.9558 142.619 23.636 139.68C23.488 138.257 23.3012 136.748 23.091 135.194C23.617 135.03 27.9375 133.662 29.5175 132.223C30.9635 130.918 32.4442 128.841 32.2943 126.733C32.2748 126.24 32.1551 125.757 31.9429 125.316C31.7307 124.874 31.4308 124.483 31.0627 124.168C30.6946 123.854 30.2666 123.623 29.8064 123.49C29.3463 123.358 28.8643 123.327 28.3919 123.399C25.569 123.913 23.3946 128.764 23.046 131.386C23.0481 131.541 22.9811 133.248 22.9733 134.323C22.8892 133.693 22.8052 133.079 22.7132 132.426C22.5218 131.136 22.3003 129.854 22.07 128.478C21.9352 127.821 21.7976 127.153 21.6575 126.475C21.5349 125.799 21.3216 125.109 21.1536 124.418C20.7391 122.819 20.2341 121.23 19.6989 119.633C20.7909 119.469 24.6605 118.785 26.2837 117.742C27.9069 116.7 29.67 114.853 29.8299 112.771C29.8824 112.281 29.8346 111.786 29.6897 111.316C29.5447 110.846 29.3058 110.413 28.9884 110.044C28.671 109.676 28.2822 109.38 27.8471 109.176C27.4121 108.972 26.9405 108.865 26.4629 108.861C23.5957 108.901 20.7371 113.388 20.0029 115.96C19.9598 116.124 19.6311 118.006 19.4719 119.044C19.1417 118.083 18.8191 117.129 18.4512 116.176C17.4019 113.418 16.2469 110.661 15.1145 107.904L14.0909 105.372C14.4825 105.312 19.0993 104.633 20.9166 103.439C22.532 102.373 24.3029 100.55 24.4553 98.4682C24.5193 97.9739 24.4805 97.4711 24.3416 96.9933C24.2027 96.5155 23.9667 96.0736 23.6495 95.6971C23.3323 95.3205 22.9411 95.0179 22.5019 94.8095C22.0627 94.601 21.5856 94.4914 21.1024 94.4879C18.2276 94.5276 15.3691 99.0143 14.6418 101.548C14.5842 101.743 14.1235 104.452 14.035 105.147C13.2547 103.288 12.5572 101.421 11.9127 99.5605C11.0313 97.0456 10.3076 94.4749 9.74612 91.8644C9.9272 91.8619 14.7548 91.1488 16.617 89.9236C18.2248 88.8578 19.9957 87.0342 20.1556 84.9525C20.2093 84.4631 20.1626 83.9673 20.0185 83.4976C19.8745 83.0278 19.6363 82.5944 19.3195 82.2257C19.0027 81.8569 18.6143 81.561 18.1796 81.3572C17.7448 81.1533 17.2735 81.0461 16.7962 81.0424C13.9214 81.0821 11.0628 85.5688 10.3356 88.1023C10.278 88.3055 9.77502 91.2253 9.72198 91.7557C9.71983 91.5999 9.64233 91.453 9.61 91.2977C9.11676 88.6618 8.84999 85.9862 8.81279 83.3023C8.79236 81.8228 8.81805 80.405 8.88956 79.0254C9.80253 79.0128 13.9654 78.7996 15.764 77.8868C17.5625 76.9741 19.4274 75.3985 19.8141 73.3448C19.9183 72.8643 19.9236 72.3665 19.8297 71.8836C19.7358 71.4006 19.5447 70.9433 19.2689 70.5412C18.993 70.1391 18.6386 69.8011 18.2284 69.5491C17.8182 69.2971 17.3613 69.1367 16.8875 69.0783C14.0237 68.8219 10.7071 72.9254 9.70692 75.3692C9.65593 75.5023 9.24554 76.9332 8.98778 77.9415C9.0321 77.3256 9.0609 76.6788 9.11309 76.0861C9.30103 73.8483 9.6126 71.819 9.8971 70.016C10.0641 68.9934 10.2401 68.0797 10.4094 67.2207C11.2927 66.7022 14.803 64.5898 15.9652 62.9538C17.1274 61.3178 18.1146 59.0299 17.5281 56.9975C17.4068 56.5184 17.1888 56.0711 16.8884 55.6849C16.5879 55.2987 16.2118 54.9823 15.7846 54.7565C15.3575 54.5308 14.8891 54.4007 14.41 54.3749C13.9309 54.3491 13.452 54.428 13.0048 54.6066C10.3488 55.7337 9.24373 60.9594 9.44619 63.5968C9.44942 63.8304 10.1397 67.3646 10.1845 67.3328L10.2374 67.3321C10.06 68.1523 9.87601 69.0349 9.69327 70.011C9.37093 71.8068 8.99146 73.837 8.78088 76.0752C8.49856 78.4832 8.35313 80.9063 8.34532 83.3321C8.32489 86.051 8.53919 88.7665 8.98568 91.4465C8.98568 91.4465 8.98654 91.5088 8.98697 91.54C8.59895 90.7665 7.43769 88.6485 7.33001 88.502C5.79106 86.3581 1.69387 83.128 -1.0329 84.0458C-1.48161 84.2122 -1.89134 84.4741 -2.23553 84.8145C-2.57971 85.1549 -2.85065 85.5663 -3.03079 86.0218C-3.21092 86.4774 -3.29623 86.9671 -3.28117 87.459C-3.26611 87.951 -3.15103 88.4343 -2.94338 88.8776C-2.12456 90.79 0.117099 91.9039 2.00253 92.3608C4.10753 92.8691 8.69797 91.9256 9.06672 91.8504C9.58277 94.5649 10.2753 97.2405 11.1395 99.8593C11.6364 101.41 12.1778 102.914 12.712 104.433C12.3558 103.776 12.0308 103.196 11.9769 103.119C10.438 100.975 6.34078 97.7449 3.61402 98.6626C3.1653 98.829 2.75557 99.0909 2.41139 99.4314C2.0672 99.7718 1.79626 100.183 1.61612 100.639C1.43599 101.094 1.35069 101.584 1.36574 102.076C1.3808 102.568 1.49588 103.051 1.70353 103.494C2.52246 105.415 4.76401 106.521 6.6419 106.978C8.51979 107.435 12.4719 106.718 13.5105 106.509C13.7373 107.09 13.9491 107.671 14.176 108.252C15.2484 111.041 16.3357 113.814 17.3095 116.566C17.655 117.535 17.9627 118.504 18.2779 119.473C17.9605 118.893 17.6821 118.406 17.6359 118.337C16.0969 116.193 11.9922 112.963 9.27295 113.881C8.82355 114.046 8.41302 114.308 8.06801 114.648C7.723 114.988 7.45123 115.399 7.27034 115.855C7.08946 116.31 7.00351 116.8 7.01808 117.293C7.03266 117.785 7.14741 118.269 7.35491 118.713C8.18128 120.625 10.4154 121.739 12.3008 122.196C14.1863 122.653 17.7468 121.996 18.9812 121.761C19.2742 122.762 19.5673 123.762 19.7771 124.748C19.9223 125.424 20.1123 126.068 20.2274 126.752C20.3425 127.435 20.4725 128.103 20.5948 128.764C20.7786 130.054 20.9857 131.383 21.139 132.65C21.2493 133.529 21.3439 134.369 21.4385 135.209C21.1006 134.24 20.4105 132.357 20.3329 132.202C19.2318 130.176 17.6502 128.472 15.7365 127.25C15.6215 127.019 15.4871 126.8 15.335 126.593C15.0555 126.194 14.6976 125.859 14.2847 125.611C13.8718 125.363 13.4131 125.208 12.9383 125.155C12.4635 125.102 11.9834 125.153 11.529 125.304C11.0747 125.455 10.6563 125.703 10.3011 126.032C8.21621 128.07 9.00615 133.355 10.1108 135.747C10.1807 135.886 11.0534 137.33 11.6545 138.233C11.2404 137.756 10.8867 137.286 10.4197 136.802C9.57618 135.832 8.70279 134.886 7.77562 133.871L6.35952 132.426C5.90003 131.942 5.35032 131.482 4.83047 130.999C3.63059 129.909 2.36334 128.86 1.06634 127.842C1.88556 127.052 4.7911 124.325 5.52067 122.508C6.25023 120.691 6.79658 118.175 5.81284 116.343C5.60018 115.9 5.29935 115.509 4.93005 115.195C4.56075 114.881 4.13133 114.65 3.66993 114.519C3.20853 114.388 2.72557 114.359 2.2527 114.434C1.77983 114.509 1.32774 114.686 0.926047 114.954C-1.43534 116.646 -1.43689 121.996 -0.692464 124.533C-0.64504 124.688 0.0886304 126.446 0.509305 127.398C-0.253718 126.793 -1.01685 126.181 -1.8702 125.593C-4.21812 123.888 -6.65583 122.24 -9.07091 120.591L-11.2805 119.064C-10.9824 118.795 -7.50222 115.6 -6.62497 113.547C-5.85002 111.738 -5.34906 109.215 -6.3328 107.383C-6.55042 106.949 -6.8536 106.567 -7.22282 106.262C-7.59203 105.956 -8.0191 105.734 -8.47652 105.609C-8.93394 105.483 -9.41158 105.459 -9.87867 105.536C-10.3458 105.613 -10.792 105.79 -11.1886 106.056C-13.55 107.74 -13.5515 113.098 -12.7996 115.627C-12.7442 115.813 -11.6829 118.345 -11.3875 118.972C-13.003 117.841 -14.6038 116.68 -16.1443 115.517C-18.2261 113.923 -20.2062 112.191 -22.0721 110.334C-21.938 110.207 -18.2785 106.886 -17.3864 104.817C-16.6113 103.015 -16.1029 100.485 -17.0867 98.6526C-17.3043 98.2138 -17.6088 97.8271 -17.9806 97.5176C-18.3524 97.2081 -18.7831 96.9828 -19.2446 96.8562C-19.7061 96.7296 -20.1883 96.7046 -20.6596 96.7829C-21.1309 96.8612 -21.5809 97.041 -21.9804 97.3106C-24.3417 99.0021 -24.3433 104.353 -23.5914 106.881C-23.5358 107.083 -22.3889 109.801 -22.1485 110.273L-22.4849 109.958C-24.3079 108.042 -25.9607 105.962 -27.4233 103.741C-28.2476 102.522 -28.9661 101.317 -29.6466 100.127C-28.8995 99.5791 -25.5386 97.0404 -24.5293 95.2585C-23.52 93.4766 -22.7982 91.099 -23.5795 89.1705C-23.7483 88.7091 -24.0092 88.2895 -24.3453 87.939C-24.6815 87.5884 -25.0853 87.3147 -25.5305 87.1358C-25.9758 86.9568 -26.4524 86.8765 -26.9296 86.9001C-27.4067 86.9238 -27.8735 87.0508 -28.2998 87.273C-30.8235 88.6864 -31.3914 94.0059 -30.9178 96.6085C-30.9159 96.7486 -30.4813 98.1601 -30.1277 99.1755C-30.4219 98.6344 -30.739 98.078 -31.0104 97.5521C-32.0489 95.5804 -32.8826 93.6838 -33.607 92.0505C-34.005 91.098 -34.3868 90.231 -34.6697 89.4171C-34.2146 88.4918 -32.4179 84.713 -32.3249 82.7023C-32.2319 80.6916 -32.7045 78.167 -34.2324 76.8251C-34.5881 76.4959 -35.0068 76.2477 -35.4614 76.0964C-35.9161 75.9451 -36.3964 75.8942 -36.8711 75.947C-37.3458 75.9999 -37.8044 76.1552 -38.217 76.403C-38.6296 76.6508 -38.9869 76.9855 -39.2658 77.3853C-40.8771 79.8375 -39.0045 84.8274 -37.4211 86.9161C-37.2827 87.1011 -34.8324 89.6608 -34.8104 89.6138L-34.8111 89.5593C-34.5212 90.3341 -34.1999 91.1941 -33.8401 92.1082C-33.1453 93.7887 -32.3493 95.6858 -31.3557 97.6893C-30.2978 99.8611 -29.1171 101.967 -27.8197 103.996C-26.3844 106.275 -24.7562 108.418 -22.9542 110.401L-22.8853 110.47C-23.6459 110.044 -25.7212 108.951 -25.926 108.876C-28.3312 107.944 -33.4903 107.602 -35.2845 109.925C-35.5708 110.318 -35.7736 110.769 -35.8796 111.249C-35.9855 111.729 -35.9923 112.227 -35.8995 112.71C-35.8067 113.193 -35.6163 113.65 -35.3408 114.052C-35.0654 114.454 -34.7109 114.792 -34.3006 115.043C-32.5716 116.196 -30.1015 115.819 -28.2998 115.132Z" fill="#3AD29F"/>
<path d="M8.50638 78.6022C8.5592 78.6015 7.70345 75.1085 7.62499 74.8915C6.72287 72.4117 3.56261 68.1718 0.68927 68.3127C0.213936 68.3517 -0.248119 68.4931 -0.667063 68.7278C-1.08601 68.9625 -1.45253 69.2853 -1.74298 69.6753C-2.03342 70.0654 -2.24133 70.514 -2.35329 70.9923C-2.46525 71.4705 -2.47877 71.9678 -2.39297 72.452C-2.08508 74.5272 -0.197734 76.2146 1.49065 77.157C3.46812 78.2668 8.49884 78.6023 8.50638 78.6022Z" fill="#3AD29F"/>
<path d="M196.809 112.022C194.761 111.31 191.342 108.001 191.067 107.732C189.24 109.758 187.282 111.653 185.206 113.405C184.005 114.426 182.766 115.425 181.512 116.408C182.148 116.049 182.725 115.729 182.807 115.697C185.186 114.698 190.334 114.214 192.191 116.486C192.488 116.872 192.703 117.318 192.821 117.795C192.94 118.272 192.96 118.77 192.88 119.255C192.8 119.741 192.621 120.203 192.356 120.612C192.091 121.021 191.746 121.368 191.342 121.63C189.668 122.814 187.188 122.521 185.368 121.884C183.548 121.247 180.552 118.485 179.779 117.74L178.323 118.859C175.986 120.635 173.648 122.397 171.401 124.196C170.61 124.83 169.849 125.487 169.088 126.136C169.658 125.816 170.137 125.553 170.22 125.52C172.59 124.522 177.746 124.038 179.603 126.31C179.9 126.696 180.115 127.143 180.234 127.621C180.352 128.098 180.372 128.596 180.292 129.082C180.212 129.568 180.034 130.031 179.769 130.441C179.504 130.851 179.158 131.199 178.754 131.462C177.08 132.638 174.593 132.345 172.78 131.716C170.968 131.087 168.254 128.577 167.329 127.702C166.584 128.39 165.839 129.078 165.094 129.789C164.618 130.279 164.133 130.721 163.688 131.242C163.242 131.762 162.788 132.251 162.35 132.756C161.526 133.74 160.68 134.757 159.901 135.749C159.36 136.434 158.848 137.088 158.336 137.757C159.12 137.115 160.673 135.894 160.815 135.806C163.015 134.452 168.046 133.16 170.201 135.124C170.552 135.458 170.83 135.866 171.018 136.318C171.206 136.771 171.299 137.26 171.291 137.753C171.284 138.245 171.176 138.73 170.975 139.177C170.773 139.623 170.483 140.02 170.122 140.343C168.633 141.766 166.144 141.87 164.252 141.53C162.179 141.146 158.453 138.534 157.988 138.205C157.143 139.307 156.335 140.393 155.58 141.424C153.565 144.193 151.879 146.654 150.585 148.643L148.875 147.747C150.251 145.735 152.05 143.202 154.222 140.352C155.074 139.227 156.009 138.046 156.981 136.841C156.025 135.717 155.134 134.535 154.313 133.303C152.279 134.11 148.074 134.02 147.531 134.012C147.422 135.415 147.32 136.772 147.247 138.066C147.052 141.425 146.972 144.37 146.944 146.73L145.089 145.751C145.172 143.538 145.317 140.904 145.548 137.957C145.664 136.53 145.809 135.017 145.968 133.457C145.438 133.308 141.089 132.06 139.462 130.665C137.988 129.4 136.451 127.365 136.543 125.254C136.547 124.761 136.653 124.275 136.852 123.828C137.051 123.38 137.339 122.981 137.698 122.656C138.057 122.332 138.478 122.089 138.933 121.944C139.389 121.798 139.87 121.754 140.344 121.813C143.187 122.249 145.487 127.038 145.908 129.649C145.91 129.805 146.025 131.509 146.062 132.583C146.136 131.951 146.196 131.335 146.277 130.68C146.425 129.385 146.611 128.097 146.811 126.716C146.923 126.053 147.042 125.381 147.161 124.702C147.28 124.023 147.459 123.327 147.607 122.632C147.985 121.022 148.439 119.419 148.929 117.808C147.833 117.675 143.946 117.098 142.295 116.101C140.644 115.103 138.83 113.306 138.62 111.229C138.553 110.741 138.586 110.245 138.717 109.771C138.848 109.297 139.074 108.858 139.381 108.48C139.687 108.103 140.067 107.796 140.496 107.581C140.925 107.365 141.393 107.245 141.871 107.228C144.745 107.188 147.727 111.594 148.524 114.145C148.579 114.308 148.952 116.18 149.14 117.213C149.444 116.243 149.747 115.281 150.081 114.319C151.061 111.532 152.132 108.745 153.188 105.958C153.516 105.104 153.829 104.251 154.141 103.398C153.756 103.349 149.114 102.797 147.265 101.655C145.628 100.634 143.808 98.8598 143.59 96.7833C143.523 96.2955 143.556 95.7987 143.687 95.3251C143.818 94.8515 144.044 94.4117 144.351 94.0344C144.657 93.657 145.037 93.3505 145.466 93.1347C145.895 92.9189 146.363 92.7987 146.84 92.7819C149.715 92.7422 152.697 97.1482 153.501 99.6605C153.557 99.8544 154.099 102.549 154.2 103.241C154.928 101.362 155.574 99.4761 156.174 97.5986C156.989 95.0605 157.644 92.4708 158.135 89.8454C157.954 89.8479 153.116 89.2683 151.221 88.0951C149.577 87.0742 147.756 85.3002 147.539 83.2237C147.473 82.7355 147.507 82.2385 147.638 81.7649C147.77 81.2913 147.997 80.8517 148.304 80.4745C148.611 80.0973 148.992 79.7909 149.421 79.5751C149.85 79.3594 150.319 79.2392 150.796 79.2223C153.671 79.1825 156.645 83.5886 157.449 86.1009C157.512 86.3026 158.088 89.2074 158.156 89.7361C158.154 89.5804 158.235 89.4313 158.255 89.2752C158.679 86.6271 158.872 83.9449 158.831 81.2609C158.811 79.7813 158.746 78.3647 158.637 76.9877C157.724 77.0003 153.556 76.9021 151.741 76.0393C149.925 75.1766 148.003 73.6533 147.567 71.6109C147.448 71.1334 147.428 70.6356 147.508 70.1498C147.588 69.664 147.766 69.2011 148.031 68.7912C148.296 68.3813 148.642 68.0336 149.045 67.7707C149.449 67.5078 149.902 67.3356 150.374 67.2652C153.23 66.9298 156.659 70.9401 157.719 73.3555C157.781 73.487 158.223 74.9062 158.508 75.9069C158.447 75.2925 158.4 74.6467 158.332 74.0557C158.082 71.8239 157.722 69.8039 157.381 68.0095C157.185 66.992 156.984 66.0835 156.791 65.2295C155.901 64.7355 152.334 62.7209 151.127 61.1176C149.92 59.5143 148.87 57.2546 149.393 55.2068C149.501 54.7273 149.706 54.2768 149.995 53.8846C150.283 53.4924 150.648 53.1671 151.066 52.93C151.484 52.6929 151.946 52.5492 152.421 52.5082C152.896 52.4672 153.375 52.5299 153.826 52.6922C156.512 53.7455 157.761 58.9387 157.631 61.5807C157.635 61.8143 157.042 65.3662 156.996 65.3357L156.944 65.3364C157.144 66.1514 157.359 67.0285 157.569 67.9991C157.941 69.7853 158.376 71.8043 158.649 74.0358C158.995 76.4353 159.204 78.8535 159.277 81.2781C159.375 83.995 159.238 86.7154 158.869 89.4069L158.87 89.5004C159.236 88.7165 160.339 86.5673 160.442 86.4178C161.921 84.2323 165.928 80.8902 168.679 81.7323C169.133 81.8852 169.55 82.1351 169.904 82.4656C170.258 82.7962 170.541 83.2001 170.734 83.6508C170.927 84.1016 171.025 84.5892 171.023 85.0818C171.021 85.5743 170.919 86.0608 170.722 86.5095C169.956 88.4438 167.746 89.6192 165.882 90.1278C163.792 90.6941 159.169 89.8779 158.799 89.8129C158.358 92.5406 157.739 95.2344 156.948 97.876C156.494 99.44 155.994 100.958 155.502 102.491C155.84 101.824 156.149 101.236 156.201 101.157C157.68 98.9719 161.694 95.6298 164.437 96.4719C164.891 96.625 165.309 96.8749 165.663 97.2053C166.017 97.5358 166.3 97.9393 166.494 98.3898C166.687 98.8403 166.787 99.3277 166.786 99.8203C166.785 100.313 166.683 100.8 166.488 101.249C165.715 103.191 163.513 104.359 161.64 104.867C159.768 105.376 155.805 104.769 154.762 104.589L154.152 106.349C153.149 109.167 152.139 111.969 151.249 114.746C150.931 115.724 150.65 116.702 150.369 117.679C150.67 117.091 150.928 116.597 150.972 116.526C152.451 114.34 156.465 110.998 159.209 111.84C159.662 111.994 160.079 112.245 160.432 112.576C160.785 112.906 161.068 113.31 161.26 113.761C161.453 114.211 161.552 114.698 161.55 115.19C161.549 115.683 161.447 116.169 161.252 116.618C160.479 118.552 158.276 119.727 156.404 120.236C154.532 120.745 150.955 120.187 149.714 119.986C149.456 120.994 149.191 122.002 149.001 122.994C148.875 123.674 148.702 124.322 148.614 125.009C148.525 125.696 148.406 126.367 148.302 127.03C148.146 128.325 147.984 129.66 147.866 130.931C147.772 131.812 147.701 132.654 147.629 133.496C147.94 132.518 148.586 130.617 148.651 130.46C149.681 128.38 151.21 126.608 153.093 125.313C153.196 125.076 153.325 124.853 153.476 124.646C153.744 124.239 154.092 123.894 154.497 123.635C154.902 123.376 155.356 123.208 155.829 123.142C156.301 123.076 156.782 123.114 157.24 123.252C157.697 123.39 158.122 123.627 158.485 123.946C160.626 125.926 159.99 131.23 158.944 133.652C158.878 133.793 158.045 135.261 157.469 136.18C157.87 135.691 158.256 135.211 158.672 134.714C159.488 133.722 160.328 132.752 161.234 131.712L162.602 130.229C163.056 129.732 163.592 129.257 164.091 128.759C165.26 127.637 166.498 126.553 167.774 125.5C166.933 124.733 163.954 122.087 163.174 120.291C162.395 118.494 161.771 115.995 162.704 114.136C162.909 113.691 163.202 113.295 163.565 112.975C163.928 112.655 164.352 112.417 164.81 112.277C165.268 112.137 165.749 112.098 166.223 112.162C166.696 112.227 167.152 112.394 167.559 112.652C169.966 114.278 170.108 119.626 169.434 122.182C169.391 122.339 168.706 124.116 168.312 125.08C169.058 124.454 169.841 123.82 170.64 123.209C172.948 121.441 175.332 119.725 177.708 118.01L179.867 116.423C179.569 116.162 175.994 113.065 175.061 111.037C174.236 109.25 173.666 106.742 174.598 104.883C174.803 104.438 175.096 104.042 175.459 103.721C175.822 103.401 176.246 103.163 176.705 103.024C177.163 102.885 177.645 102.847 178.118 102.913C178.592 102.978 179.047 103.147 179.453 103.406C181.853 105.024 182.002 110.381 181.328 112.929C181.278 113.117 180.287 115.677 180.001 116.312C181.592 115.137 183.16 113.932 184.661 112.727C186.699 111.078 188.631 109.293 190.443 107.382C190.306 107.26 186.563 104.04 185.607 101.997C184.782 100.217 184.212 97.7019 185.144 95.8432C185.349 95.3988 185.642 95.004 186.004 94.6844C186.367 94.3648 186.79 94.1276 187.248 93.9883C187.705 93.849 188.186 93.8107 188.658 93.8758C189.131 93.941 189.585 94.1082 189.992 94.3666C192.399 95.9922 192.548 101.341 191.866 103.889C191.816 104.092 190.753 106.841 190.525 107.319L190.853 106.995C192.618 105.028 194.21 102.902 195.61 100.644C196.4 99.4027 197.085 98.1783 197.733 96.9699C196.971 96.4431 193.541 93.9982 192.49 92.2447C191.44 90.4913 190.645 88.1346 191.373 86.1853C191.529 85.7195 191.778 85.2928 192.104 84.9331C192.431 84.5734 192.827 84.2886 193.267 84.0974C193.707 83.9062 194.181 83.8128 194.659 83.8233C195.136 83.8338 195.607 83.9479 196.039 84.1582C198.601 85.5013 199.315 90.8031 198.914 93.4177C198.916 93.5579 198.513 94.981 198.195 96.0056C198.474 95.4566 198.776 94.8916 199.04 94.3584C200.024 92.3588 200.797 90.4399 201.476 88.7872C201.855 87.824 202.205 86.9469 202.473 86.1254C201.985 85.2131 200.092 81.4853 199.936 79.478C199.78 77.4708 200.138 74.9502 201.651 73.5664C201.997 73.2275 202.409 72.9677 202.859 72.804C203.309 72.6402 203.788 72.576 204.264 72.6157C204.74 72.6555 205.203 72.7981 205.622 73.0344C206.041 73.2707 206.408 73.5954 206.698 73.9873C208.376 76.3941 206.642 81.4337 205.124 83.5654C204.991 83.7541 202.605 86.3806 202.582 86.3342L202.581 86.2797C202.32 87.0621 202.023 87.9307 201.681 88.8545C201.04 90.5534 200.297 92.4718 199.351 94.5021C198.359 96.7018 197.242 98.8393 196.006 100.904C194.639 103.225 193.071 105.413 191.319 107.44L191.252 107.511C192.001 107.065 194.045 105.915 194.248 105.835C196.619 104.836 201.774 104.352 203.632 106.624C203.929 107.01 204.143 107.456 204.262 107.933C204.38 108.41 204.4 108.907 204.32 109.393C204.24 109.878 204.062 110.341 203.797 110.75C203.532 111.159 203.186 111.506 202.782 111.768C201.108 112.967 198.621 112.659 196.809 112.022Z" fill="#3AD29F"/>
<path d="M159.007 76.5232C158.955 76.5239 159.714 73.0087 159.778 72.7897C160.612 70.2859 163.661 65.9602 166.53 66.0218C167.006 66.0464 167.473 66.1742 167.899 66.3969C168.325 66.6195 168.7 66.9321 169.002 67.3143C169.303 67.6964 169.523 68.1396 169.648 68.6151C169.772 69.0907 169.799 69.5878 169.725 70.0743C169.482 72.1572 167.635 73.8962 165.981 74.8848C164.035 76.0487 159.007 76.5232 159.007 76.5232Z" fill="#3AD29F"/>
</g>
<path d="M143.749 88.1371C143.749 82.386 151.589 75.6188 150.171 70.2894C148.695 64.7778 138.487 62.8704 135.698 58.0394C132.909 53.2084 136.283 43.3643 132.305 39.3864C128.328 35.4086 118.561 38.8401 113.654 36.0028C108.747 33.1656 106.945 23.0052 101.415 21.5291C96.086 20.1105 89.3482 27.9512 83.5688 27.9512C77.7894 27.9512 71.0515 20.1105 65.7226 21.5291C60.2116 23.0052 58.3043 33.2135 53.4737 36.0028C48.6432 38.7922 38.8 35.4181 34.8225 39.396C30.845 43.3739 34.2762 53.1413 31.4392 58.049C28.6022 62.9566 18.4428 64.7587 16.9668 70.2894C15.5195 75.6188 23.3883 82.386 23.3883 88.1371C23.3883 93.8883 15.5483 100.656 16.9668 105.985C18.4428 111.496 28.6501 113.404 31.4392 118.235C34.2283 123.066 30.8546 132.91 34.8321 136.888C38.8096 140.866 48.5761 137.434 53.4833 140.271C58.3905 143.109 60.1924 153.269 65.7226 154.745C71.0515 156.164 77.7894 148.323 83.5688 148.323C89.3482 148.323 96.086 156.164 101.415 154.745C106.926 153.269 108.833 143.061 113.664 140.271C118.494 137.482 128.338 140.856 132.315 136.878C136.293 132.9 132.861 123.133 135.698 118.225C138.535 113.318 148.695 111.516 150.171 105.985C151.618 100.656 143.749 93.8883 143.749 88.1371Z" fill="#3AD29F"/>
<path d="M81.462 112.752L55.219 85.2908C54.6161 84.6568 54.2927 83.8121 54.3199 82.9424C54.3472 82.0727 54.7228 81.2493 55.3641 80.6534C56.0055 80.0575 56.8601 79.7378 57.7399 79.7647C58.6197 79.7916 59.4527 80.1629 60.0555 80.7968L80.6591 102.368L106.68 65.0775C106.916 64.6994 107.228 64.3728 107.596 64.1175C107.964 63.8621 108.381 63.6834 108.821 63.5922C109.261 63.501 109.715 63.4992 110.156 63.5869C110.597 63.6746 111.015 63.85 111.386 64.1023C111.756 64.3547 112.07 64.6788 112.31 65.055C112.549 65.4312 112.709 65.8516 112.779 66.2907C112.849 66.7298 112.828 67.1784 112.718 67.6092C112.607 68.04 112.409 68.4441 112.135 68.797L81.462 112.752Z" fill="white"/>
</g>
</svg>
