<svg width="13" height="14" viewBox="0 0 13 14" fill="none" xmlns="http://www.w3.org/2000/svg">
<path d="M8.30826 2.12265C7.09111 1.41362 6.1457 0.862855 5.37785 0.505567C4.60719 0.146937 3.93819 -0.0555897 3.28768 0.0133909C2.25526 0.122885 1.31539 0.669432 0.702892 1.52005C0.31602 2.05734 0.154932 2.74694 0.0773114 3.60067C-6.9528e-06 4.451 1.32105e-07 5.55309 1.32105e-07 6.97044V7.02952C-6.89492e-06 8.4469 -6.9528e-06 9.54903 0.0773114 10.3993C0.154932 11.2531 0.31602 11.9427 0.702892 12.4799C1.31539 13.3305 2.25526 13.8771 3.28768 13.9866C3.93819 14.0556 4.60718 13.8531 5.37785 13.4944C6.1457 13.1371 7.09111 12.5864 8.30819 11.8773L8.35759 11.8485C9.57467 11.1396 10.5201 10.5888 11.2108 10.0965C11.9034 9.60273 12.4139 9.11818 12.6817 8.51144C13.1061 7.54953 13.1061 6.4505 12.6817 5.48854C12.4139 4.88184 11.9034 4.39728 11.2108 3.90352C10.5201 3.41117 9.57467 2.8604 8.35759 2.15142L8.30826 2.12265Z" fill="#D81E1E"/>
</svg>
