<svg width="26" height="26" viewBox="0 0 26 26" fill="none" xmlns="http://www.w3.org/2000/svg">
<path d="M14.3358 10.1126L10.3609 7.1206V18.8794L14.3358 15.8874L18.1805 13L14.3358 10.1126ZM14.3358 10.1126L10.3609 7.1206V18.8794L14.3358 15.8874L18.1805 13L14.3358 10.1126ZM14.3358 10.1126L10.3609 7.1206V18.8794L14.3358 15.8874L18.1805 13L14.3358 10.1126ZM11.6642 2.6392V0C9.04461 0.261307 6.65965 1.30653 4.73083 2.88744L6.58145 4.75578C8.02807 3.63216 9.7614 2.87437 11.6642 2.6392ZM4.74386 6.59799L2.8802 4.74271C1.30326 6.67638 0.260652 9.06734 0 11.6935H2.63258C2.86717 9.78593 3.62306 8.04824 4.74386 6.59799ZM2.63258 14.3065H0C0.260652 16.9327 1.30326 19.3236 2.8802 21.2573L4.74386 19.3889C3.62306 17.9518 2.86717 16.2141 2.63258 14.3065ZM4.73083 23.1126C6.65965 24.6935 9.05764 25.7387 11.6642 26V23.3608C9.7614 23.1256 8.02807 22.3678 6.58145 21.2442L4.73083 23.1126ZM26 13C26 19.7417 20.8912 25.3075 14.3358 26V23.3608C19.4446 22.6814 23.3935 18.2915 23.3935 13C23.3935 7.70854 19.4446 3.31859 14.3358 2.6392V0C20.8912 0.692462 26 6.25829 26 13Z" fill="#AAAACB"/>
</svg>
