<svg width="150" height="159" viewBox="0 0 150 159" fill="none" xmlns="http://www.w3.org/2000/svg">
<path fill-rule="evenodd" clip-rule="evenodd" d="M75 144.826C108.866 144.826 136.32 117.02 136.32 82.7195C136.32 48.4189 108.866 20.6128 75 20.6128C41.1339 20.6128 13.6799 48.4189 13.6799 82.7195C13.6799 117.02 41.1339 144.826 75 144.826Z" stroke="#3AD29F" stroke-width="0.305962" stroke-dasharray="1.84 1.84"/>
<path fill-rule="evenodd" clip-rule="evenodd" d="M75 158C116.05 158 149.327 124.295 149.327 82.7189C149.327 41.1424 116.05 7.43799 75 7.43799C33.9501 7.43799 0.672607 41.1424 0.672607 82.7189C0.672607 124.295 33.9501 158 75 158Z" stroke="#3AD29F" stroke-width="0.305962" stroke-dasharray="1.84 1.84"/>
<path d="M124.746 106.702C124.748 97.9379 118.164 90.6114 109.548 89.7908C100.933 88.9702 93.1159 94.9252 91.5047 103.537L39.9731 102.121L40.5389 111.088C40.5389 111.088 33.1908 128.26 71.81 132.835V150.192H116.456V121.334C121.586 118.292 124.741 112.724 124.746 106.702Z" fill="url(#paint0_linear_34_3690)"/>
<path d="M42.3082 111.464C42.3082 111.464 35.2719 127.908 72.256 132.296V148.924H115.013V104.887L41.759 102.875L42.3082 111.464Z" fill="#FFCBB4"/>
<path d="M63.6773 42.8392C61.3564 46.5485 56.5136 47.6631 52.8379 45.3339L29.8811 30.0122C26.2188 27.6615 25.1183 22.7565 27.418 19.0337C29.7385 15.3295 34.5752 14.2155 38.2491 16.539L61.2059 31.8608C64.8712 34.2087 65.9755 39.1142 63.6773 42.8392Z" fill="url(#paint1_linear_34_3690)"/>
<path d="M62.4056 42.0022C60.2483 45.4501 55.7468 46.4862 52.3301 44.3213L30.9837 30.0681C27.5795 27.8831 26.5566 23.3239 28.694 19.8634C30.8514 16.4155 35.3528 15.3794 38.7695 17.5443L60.1118 31.7891C63.5225 33.9731 64.5479 38.5389 62.4056 42.0022Z" fill="#FFCBB4"/>
<path d="M106.897 123.526C115.765 123.526 122.953 116.244 122.953 107.263C122.953 98.2811 115.765 91 106.897 91C98.0287 91 90.8398 98.2811 90.8398 107.263C90.8398 116.244 98.0287 123.526 106.897 123.526Z" fill="#FFCBB4"/>
<path d="M104.006 0H42.4962C41.0994 0 39.967 1.14689 39.967 2.56164V119.134C39.967 120.549 41.0994 121.696 42.4962 121.696H104.006C105.403 121.696 106.535 120.549 106.535 119.134V2.56164C106.535 1.14689 105.403 0 104.006 0Z" fill="url(#paint2_linear_34_3690)"/>
<path d="M102.817 1.646H43.6814C42.1261 1.646 40.8652 2.92302 40.8652 4.49831V117.202C40.8652 118.777 42.1261 120.055 43.6814 120.055H102.817C104.372 120.055 105.633 118.777 105.633 117.202V4.49831C105.633 2.92302 104.372 1.646 102.817 1.646Z" fill="white"/>
<path d="M89.5206 4.61523C89.1335 7.20993 86.9355 9.13068 84.3446 9.13836H61.9761C59.386 9.12965 57.1892 7.20915 56.8021 4.61523H44.9511C44.2985 4.61523 43.6725 4.87683 43.2109 5.34396C42.7493 5.81109 42.49 6.44488 42.49 7.10578V114.59C42.49 115.251 42.7483 115.885 43.2095 116.353C43.6707 116.82 44.2965 117.083 44.949 117.083H101.549C102.202 117.083 102.828 116.821 103.289 116.354C103.751 115.887 104.01 115.253 104.01 114.592V7.10787C104.01 6.44697 103.752 5.81296 103.291 5.34544C102.83 4.87792 102.204 4.61523 101.551 4.61523H89.5206Z" fill="#E9ECFF"/>
<path d="M80.1451 6.03076H66.537C66.3089 6.03076 66.124 6.21801 66.124 6.44899V6.52636C66.124 6.75734 66.3089 6.94459 66.537 6.94459H80.1451C80.3731 6.94459 80.558 6.75734 80.558 6.52636V6.44899C80.558 6.21801 80.3731 6.03076 80.1451 6.03076Z" fill="#DBDBDB"/>
<path d="M83.6241 7.07788C83.9956 7.07788 84.2967 6.77287 84.2967 6.39661C84.2967 6.02035 83.9956 5.71533 83.6241 5.71533C83.2526 5.71533 82.9514 6.02035 82.9514 6.39661C82.9514 6.77287 83.2526 7.07788 83.6241 7.07788Z" fill="#DBDBDB"/>
<path d="M117.276 110.132C112.616 111.223 109.418 108.145 108.34 103.427L97.6326 63.1585C96.5673 58.4226 99.4773 53.704 104.147 52.5961C108.823 51.5171 113.481 54.4644 114.575 59.1937L123.313 100.502C124.39 105.222 121.934 109.04 117.276 110.132Z" fill="url(#paint3_linear_34_3690)"/>
<path d="M113.374 60.1798C112.465 56.1975 108.542 53.7151 104.61 54.6353C100.678 55.5554 98.2269 59.5295 99.1354 63.5118L108.981 106.671C109.89 110.654 113.813 113.136 117.745 112.216C121.677 111.296 124.128 107.322 123.22 103.339L113.374 60.1798Z" fill="#FFCBB4"/>
<path d="M122.885 143.483H61.7717V157.912H122.885V143.483Z" fill="url(#paint4_linear_34_3690)"/>
<path d="M121.234 145.156H63.4236V156.448H121.234V145.156Z" fill="#4D8AF0"/>
<path d="M54.7664 86.0378C52.4737 89.703 47.6887 90.8046 44.0571 88.5033L28.661 78.4135C25.0422 76.0914 23.9546 71.2451 26.2267 67.5668C28.5194 63.9016 33.3044 62.8 36.9361 65.1013L52.3322 75.1911C55.9509 77.5132 57.0386 82.3595 54.7664 86.0378Z" fill="url(#paint5_linear_34_3690)"/>
<path d="M50.9014 107.395C48.5883 111.093 43.7597 112.205 40.095 109.883L30.5584 102.84C26.9064 100.497 25.8086 95.6068 28.1015 91.8951C30.4146 88.1962 35.2431 87.0843 38.9078 89.4066L48.4444 96.4517C52.0952 98.7944 53.1928 103.683 50.9014 107.395Z" fill="url(#paint6_linear_34_3690)"/>
<g opacity="0.5">
<path d="M73.2491 79.6574C83.5048 79.6574 91.8186 71.2369 91.8186 60.8497C91.8186 50.4625 83.5048 42.042 73.2491 42.042C62.9935 42.042 54.6797 50.4625 54.6797 60.8497C54.6797 71.2369 62.9935 79.6574 73.2491 79.6574Z" fill="url(#paint7_linear_34_3690)"/>
</g>
<path d="M73.2492 78.5514C82.9016 78.5514 90.7265 70.6262 90.7265 60.8499C90.7265 51.0737 82.9016 43.1484 73.2492 43.1484C63.5968 43.1484 55.772 51.0737 55.772 60.8499C55.772 70.6262 63.5968 78.5514 73.2492 78.5514Z" fill="#69F0AE"/>
<path d="M65.6637 58.4871L72.2169 64.5723L81.5016 50.7437L84.7802 53.5102L72.2169 70.1055L62.9321 59.5954L65.6637 58.4871Z" fill="white"/>
<path d="M50.1312 106.87C47.9739 110.318 43.4724 111.354 40.0557 109.189L31.1612 102.631C27.757 100.446 26.7341 95.8869 28.8715 92.4264C31.0288 88.9785 35.5303 87.9424 38.947 90.1073L47.8395 96.6776C51.2368 98.8614 52.2599 103.411 50.1312 106.87Z" fill="#FFCBB4"/>
<path d="M53.9198 85.4835C51.7625 88.9314 47.261 89.9675 43.8443 87.8026L29.3587 78.3088C25.9545 76.1238 24.9316 71.5646 27.069 68.1041C29.2264 64.6562 33.7278 63.6201 37.1445 65.785L51.6301 75.2788C55.0343 77.4638 56.0573 82.023 53.9198 85.4835Z" fill="#FFCBB4"/>
<path d="M58.747 64.7816C56.443 68.4628 51.6365 69.5689 47.9881 67.2575L28.4772 54.3907C24.8425 52.0572 23.7504 47.189 26.0326 43.4938C28.3366 39.8125 33.1431 38.7064 36.7915 41.0179L56.3024 53.8846C59.9371 56.2182 61.0292 61.0864 58.747 64.7816Z" fill="url(#paint8_linear_34_3690)"/>
<path d="M57.7106 64.1123C55.5533 67.5601 51.0518 68.5962 47.6351 66.4313L29.3609 54.3801C25.9567 52.1951 24.9338 47.6359 27.0712 44.1754C29.2285 40.7275 33.73 39.6914 37.1467 41.8563L55.4189 53.9075C58.8238 56.0918 59.8477 60.6512 57.7106 64.1123Z" fill="#FFCBB4"/>
<defs>
<linearGradient id="paint0_linear_34_3690" x1="82.3624" y1="150.202" x2="82.3624" y2="89.7183" gradientUnits="userSpaceOnUse">
<stop stop-color="#808080" stop-opacity="0.25"/>
<stop offset="0.54" stop-color="#808080" stop-opacity="0.12"/>
<stop offset="1" stop-color="#808080" stop-opacity="0.1"/>
</linearGradient>
<linearGradient id="paint1_linear_34_3690" x1="45.5456" y1="46.5531" x2="45.5456" y2="15.324" gradientUnits="userSpaceOnUse">
<stop stop-color="#808080" stop-opacity="0.25"/>
<stop offset="0.54" stop-color="#808080" stop-opacity="0.12"/>
<stop offset="1" stop-color="#808080" stop-opacity="0.1"/>
</linearGradient>
<linearGradient id="paint2_linear_34_3690" x1="73.2512" y1="121.694" x2="73.2512" y2="-0.00208905" gradientUnits="userSpaceOnUse">
<stop stop-color="#808080" stop-opacity="0.25"/>
<stop offset="0.54" stop-color="#808080" stop-opacity="0.12"/>
<stop offset="1" stop-color="#808080" stop-opacity="0.1"/>
</linearGradient>
<linearGradient id="paint3_linear_34_3690" x1="110.487" y1="110.349" x2="110.487" y2="52.3703" gradientUnits="userSpaceOnUse">
<stop stop-color="#808080" stop-opacity="0.25"/>
<stop offset="0.54" stop-color="#808080" stop-opacity="0.12"/>
<stop offset="1" stop-color="#808080" stop-opacity="0.1"/>
</linearGradient>
<linearGradient id="paint4_linear_34_3690" x1="92.3327" y1="157.908" x2="92.3327" y2="143.479" gradientUnits="userSpaceOnUse">
<stop stop-color="#808080" stop-opacity="0.25"/>
<stop offset="0.54" stop-color="#808080" stop-opacity="0.12"/>
<stop offset="1" stop-color="#808080" stop-opacity="0.1"/>
</linearGradient>
<linearGradient id="paint5_linear_34_3690" x1="40.4935" y1="89.7057" x2="40.4935" y2="63.901" gradientUnits="userSpaceOnUse">
<stop stop-color="#808080" stop-opacity="0.25"/>
<stop offset="0.54" stop-color="#808080" stop-opacity="0.12"/>
<stop offset="1" stop-color="#808080" stop-opacity="0.1"/>
</linearGradient>
<linearGradient id="paint6_linear_34_3690" x1="39.5025" y1="111.096" x2="39.5025" y2="88.1917" gradientUnits="userSpaceOnUse">
<stop stop-color="#808080" stop-opacity="0.25"/>
<stop offset="0.54" stop-color="#808080" stop-opacity="0.12"/>
<stop offset="1" stop-color="#808080" stop-opacity="0.1"/>
</linearGradient>
<linearGradient id="paint7_linear_34_3690" x1="73.2491" y1="79.6574" x2="73.2491" y2="42.0399" gradientUnits="userSpaceOnUse">
<stop stop-color="#808080" stop-opacity="0.25"/>
<stop offset="0.54" stop-color="#808080" stop-opacity="0.12"/>
<stop offset="1" stop-color="#808080" stop-opacity="0.1"/>
</linearGradient>
<linearGradient id="paint8_linear_34_3690" x1="42.3888" y1="68.4724" x2="42.3888" y2="39.8176" gradientUnits="userSpaceOnUse">
<stop stop-color="#808080" stop-opacity="0.25"/>
<stop offset="0.54" stop-color="#808080" stop-opacity="0.12"/>
<stop offset="1" stop-color="#808080" stop-opacity="0.1"/>
</linearGradient>
</defs>
</svg>
