<svg width="50" height="50" viewBox="0 0 50 50" fill="none" xmlns="http://www.w3.org/2000/svg">
<rect x="0.5" y="0.5" width="49" height="49" rx="24.5" stroke="#55ACEE"/>
<path d="M36.4561 17.443C36.0791 17.6102 35.6915 17.7513 35.2954 17.8659C35.7643 17.3356 36.1218 16.7116 36.3401 16.0288C36.389 15.8757 36.3383 15.7082 36.2125 15.6081C36.0869 15.5079 35.9123 15.4959 35.7739 15.5779C34.9328 16.0768 34.0253 16.4353 33.0737 16.6449C32.1152 15.7083 30.8133 15.1753 29.4674 15.1753C26.6265 15.1753 24.3152 17.4865 24.3152 20.3273C24.3152 20.5511 24.3294 20.7736 24.3574 20.993C20.8321 20.6834 17.5548 18.9507 15.3042 16.19C15.224 16.0916 15.1004 16.0386 14.9739 16.0487C14.8473 16.0586 14.7336 16.13 14.6696 16.2397C14.2132 17.023 13.9719 17.9188 13.9719 18.8303C13.9719 20.0717 14.4151 21.2495 15.198 22.1699C14.96 22.0874 14.7289 21.9844 14.5085 21.862C14.3901 21.7961 14.2456 21.7971 14.128 21.8646C14.0103 21.932 13.9366 22.056 13.9335 22.1916C13.9329 22.2144 13.9329 22.2373 13.9329 22.2604C13.9329 24.1134 14.9302 25.7817 16.455 26.691C16.324 26.678 16.1931 26.659 16.063 26.6341C15.9289 26.6085 15.7911 26.6555 15.7006 26.7578C15.6101 26.86 15.5801 27.0024 15.6218 27.1325C16.1862 28.8945 17.6393 30.1906 19.3959 30.5858C17.939 31.4983 16.2728 31.9763 14.5238 31.9763C14.1588 31.9763 13.7918 31.9549 13.4326 31.9124C13.2541 31.8911 13.0835 31.9965 13.0227 32.1662C12.9619 32.336 13.0263 32.5253 13.1782 32.6226C15.4251 34.0633 18.0232 34.8248 20.6915 34.8248C25.9369 34.8248 29.2184 32.3512 31.0474 30.2762C33.3282 27.6887 34.6362 24.2639 34.6362 20.88C34.6362 20.7386 34.6341 20.5959 34.6297 20.4536C35.5296 19.7756 36.3043 18.9551 36.9348 18.0121C37.0305 17.8689 37.0201 17.6796 36.9092 17.5477C36.7984 17.4158 36.6138 17.3732 36.4561 17.443Z" fill="#55ACEE"/>
</svg>
